<svg width="465" height="380" viewBox="0 0 465 380" fill="none" xmlns="http://www.w3.org/2000/svg">
<g clip-path="url(#clip0_460_279)">
<path d="M423.924 58.2461L422.047 63.8355L420.719 67.7895L409.803 100.251L402.215 99.1304L360.49 92.9698L364.626 80.7605L396.354 87.3692L398.595 80.6485L366.867 74.1518L374.135 52.7071L376.976 44.3231L384.026 23.5225L400.792 26.4124L391.871 52.6455L423.924 58.2461Z" fill="#ECECEC"/>
<path d="M384.026 23.5225L376.977 44.3231L332.209 22.3183L339.774 0.280029L384.026 23.5225Z" fill="white"/>
<path d="M376.977 44.3231L374.135 52.7072L329.334 30.6856L332.209 22.3184L376.977 44.3231Z" fill="#3AB795"/>
<path d="M329.333 30.6856L316.221 68.8872L360.49 92.9698L364.625 80.7605L366.867 74.1518L374.135 52.7071L329.333 30.6856ZM357.688 84.5689L322.385 66.647L324.626 61.0464L359.93 79.5283L357.688 84.5689Z" fill="white"/>
<path d="M432.778 31.9233L423.924 58.2461L391.871 52.6455L400.792 26.4124L432.778 31.9233Z" fill="#86BAA1"/>
<path d="M398.595 80.6485L396.353 87.3692L364.625 80.7605L366.866 74.1518L398.595 80.6485Z" fill="#86BAA1"/>
<path d="M359.93 79.5284L357.688 84.5689L322.385 66.647L324.626 61.0464L359.93 79.5284Z" fill="#3AB795"/>
<path d="M449.09 115.607L437.821 140.015L390.75 120.973L402.215 99.1305L409.803 100.251L420.719 67.7896L449.09 115.607Z" fill="white"/>
<path d="M422.047 63.8355L420.719 67.7895L449.09 115.607L464.719 81.7686L422.047 63.8355ZM449.869 92.9698C446.311 92.9698 443.425 90.0855 443.425 86.5291C443.425 82.9727 446.311 80.0884 449.869 80.0884C453.428 80.0884 456.313 82.9727 456.313 86.5291C456.313 90.0855 453.428 92.9698 449.869 92.9698Z" fill="#ECECEC"/>
<path d="M449.868 92.9698C453.427 92.9698 456.312 90.0862 456.312 86.5291C456.312 82.972 453.427 80.0884 449.868 80.0884C446.309 80.0884 443.424 82.972 443.424 86.5291C443.424 90.0862 446.309 92.9698 449.868 92.9698Z" fill="#3AB795"/>
<path d="M144.761 87.7556L129.642 71.3571C127.3 68.8144 123.338 68.652 120.794 70.9931L83.7199 105.134C81.1814 107.475 81.0189 111.429 83.3613 113.972L98.48 130.376C100.822 132.913 104.784 133.076 107.323 130.735L144.397 96.599C146.941 94.2579 147.103 90.2983 144.761 87.7556ZM141.769 94.0283L105.451 127.469C104.672 128.186 103.462 128.141 102.744 127.363L86.5162 109.76C85.7989 108.982 85.8493 107.772 86.6282 107.055L122.946 73.6085C123.725 72.8973 124.935 72.9421 125.652 73.7206L141.881 91.3232C142.598 92.1017 142.547 93.3114 141.769 94.0283Z" fill="#86BAA1"/>
<path d="M141.769 94.0283L105.451 127.469C104.672 128.186 103.462 128.142 102.745 127.363L86.5165 109.76C85.7992 108.982 85.8496 107.772 86.6285 107.055L122.946 73.6086C123.725 72.8973 124.935 72.9421 125.653 73.7206L141.881 91.3232C142.598 92.1017 142.548 93.3114 141.769 94.0283Z" fill="#ECECEC"/>
<path d="M112.332 50.03C109.406 44.0598 97.5714 43.847 85.8933 49.5652C74.2208 55.2778 67.1322 64.754 70.0573 70.7242C71.4974 73.6645 75.1006 75.2047 79.7685 75.3279L89.2724 81.7686L93.4191 72.5612C94.4446 72.1468 95.47 71.6931 96.4955 71.1891C108.168 65.4765 115.257 56.0003 112.332 50.03ZM80.7211 69.5593C78.9111 70.4442 76.7313 69.6993 75.8459 67.8903C74.9605 66.0869 75.7058 63.9083 77.5158 63.0234C79.3202 62.1385 81.5056 62.8834 82.3854 64.6868C83.2708 66.4958 82.5255 68.6744 80.7211 69.5593ZM92.7971 63.6451C90.9927 64.53 88.8072 63.7851 87.9219 61.9817C87.0365 60.1727 87.7874 57.9941 89.5918 57.1092C91.3962 56.2243 93.5816 56.9692 94.467 58.7782C95.3524 60.5815 94.6015 62.7602 92.7971 63.6451ZM104.873 57.7364C103.069 58.6157 100.889 57.8709 100.003 56.0675C99.118 54.2585 99.8633 52.0799 101.668 51.195C103.478 50.3101 105.658 51.0549 106.543 52.8639C107.428 54.6673 106.683 56.8516 104.873 57.7364Z" fill="#3AB795"/>
<path d="M80.7206 69.5593C78.9106 70.4442 76.7308 69.6993 75.8454 67.8903C74.96 66.0869 75.7053 63.9083 77.5153 63.0234C79.3197 62.1385 81.5051 62.8834 82.3849 64.6867C83.2703 66.4957 82.525 68.6744 80.7206 69.5593Z" fill="white"/>
<path d="M92.7958 63.6451C90.9914 64.53 88.806 63.7851 87.9206 61.9817C87.0352 60.1727 87.7861 57.9941 89.5905 57.1092C91.3949 56.2243 93.5803 56.9692 94.4657 58.7782C95.3511 60.5815 94.6002 62.7602 92.7958 63.6451Z" fill="white"/>
<path d="M104.873 57.7364C103.069 58.6157 100.889 57.8708 100.004 56.0674C99.1184 54.2585 99.8636 52.0798 101.668 51.1949C103.478 50.31 105.658 51.0549 106.543 52.8639C107.429 54.6673 106.683 56.8515 104.873 57.7364Z" fill="white"/>
<path d="M446.142 188.74V235.578H390.385V188.74H412.62V213.506L418.263 207.871L423.9 213.506V188.74H446.142Z" fill="#86BAA1"/>
<path d="M423.901 188.74V213.506L418.264 207.871L412.621 213.506V188.74H423.901Z" fill="#3AB795"/>
<path d="M462.046 235.785L461.485 320.914H374.482L375.043 235.785H409.741V274.429L418.544 265.636L427.342 274.429V235.785H462.046Z" fill="#3AB795"/>
<path d="M427.341 235.785V274.429L418.544 265.636L409.74 274.429V235.785H427.341Z" fill="#86BAA1"/>
<path d="M131.837 248.851L88.9858 196.037C87.7586 194.525 85.5339 194.296 84.0209 195.522L1.58501 262.332C0.0720148 263.564 -0.16334 265.782 1.06387 267.294L43.9153 320.107C45.1425 321.619 47.3672 321.849 48.8802 320.623L131.316 253.813C132.829 252.587 133.064 250.363 131.837 248.851ZM48.5944 315.016L9.99055 267.439L7.01499 263.771L84.3067 201.128L87.2823 204.797L125.886 252.374L48.5944 315.016Z" fill="#3AB795"/>
<path d="M87.282 204.797L84.4745 207.076L84.1495 210.162L51.155 236.905L48.1065 239.375L15.112 266.118L12.0244 265.793L9.99023 267.439L48.5941 315.016L125.886 252.374L87.282 204.797ZM47.0362 308.744L35.0331 293.953L108.593 234.34L120.59 249.125L47.0362 308.744Z" fill="#86BAA1"/>
<path d="M87.2829 204.797L84.4755 207.076L12.0253 265.793L9.99119 267.439L7.01562 263.771L84.3074 201.128L87.2829 204.797Z" fill="white"/>
<path d="M84.4755 207.076L84.1505 210.162L51.156 236.905L48.1076 239.375L15.113 266.118L12.0254 265.793L84.4755 207.076Z" fill="#BABABA"/>
<path d="M120.59 249.125L47.0363 308.744L35.0332 293.953L108.593 234.34L120.59 249.125Z" fill="#3AB795"/>
<path d="M109.086 303.854L114.001 309.914L113.328 310.458L112.656 311.006L107.741 304.947L105.948 310.306L101.857 296.322L114.701 303.21L109.086 303.854Z" fill="white"/>
<path d="M262.157 55.4458C262.157 55.4458 261.344 55.037 259.926 54.4769C255.522 52.7296 245.239 49.5316 235.085 52.7016C231.09 53.9449 226.982 54.8018 222.824 55.2946C221.782 55.4122 220.818 55.9163 220.14 56.7172C218.291 58.879 215.36 64.222 216.436 75.7592C216.447 75.8936 216.464 76.028 216.475 76.168C217.254 83.9304 217.551 90.3767 219.473 96.2293C220.611 99.7129 222.331 102.989 225.071 106.204C227.688 109.268 231.23 112.281 236.088 115.372C236.088 115.372 239.45 117.612 241.692 117.612H241.983C244.225 117.612 247.587 115.372 247.587 115.372C252.675 112.135 256.317 108.987 258.962 105.773C261.495 102.692 263.115 99.5561 264.202 96.2293C266.124 90.3767 266.421 83.9304 267.2 76.168C267.239 75.776 267.273 75.3952 267.301 75.0143C268.573 59.187 262.157 55.4458 262.157 55.4458ZM227.683 86.2491C225.828 86.2491 224.32 81.735 224.32 76.168C224.32 70.601 225.828 66.087 227.683 66.087C229.537 66.087 231.045 70.601 231.045 76.168C231.045 81.735 229.537 86.2491 227.683 86.2491ZM255.701 86.2491C253.846 86.2491 252.339 81.735 252.339 76.168C252.339 70.601 253.846 66.087 255.701 66.087C257.556 66.087 259.063 70.601 259.063 76.168C259.063 81.735 257.556 86.2491 255.701 86.2491Z" fill="white"/>
<path d="M219.475 96.2293C214.062 93.8883 205.269 84.5689 206.95 77.8482C207.388 76.1008 208.239 75.1207 209.259 74.6279C212.162 73.2221 216.437 75.7592 216.437 75.7592C216.449 75.8936 216.465 76.028 216.477 76.168C217.256 83.9304 217.553 90.3767 219.475 96.2293Z" fill="white"/>
<path d="M275.315 81.2085C272.513 93.5298 264.203 96.2293 264.203 96.2293C266.125 90.3767 266.422 83.9304 267.201 76.168C267.24 75.7759 267.274 75.3951 267.302 75.0143C267.302 75.0143 271.656 72.55 274.122 73.8885C275.545 74.667 276.341 76.7056 275.315 81.2085Z" fill="white"/>
<path d="M265.037 38.476C264.051 41.9764 262.498 44.9279 261.305 45.9248C258.01 48.6691 259.848 54.2473 259.926 54.4713C255.522 52.7295 245.239 49.5316 235.085 52.7015C231.09 53.9449 226.982 54.8018 222.824 55.2946C221.782 55.4122 220.818 55.9163 220.14 56.7172C218.291 58.879 215.36 64.2219 216.436 75.7592C216.436 75.7592 212.16 73.2221 209.258 74.6278C207.638 51.8166 209.191 43.6846 217.036 32.4834C224.881 21.2822 247.856 20.1621 259.344 22.5088C266.746 24.0265 266.819 32.1418 265.037 38.476Z" fill="black"/>
<path d="M274.121 73.8886C271.656 72.55 267.302 75.0143 267.302 75.0143C268.574 59.187 262.157 55.4458 262.157 55.4458C262.157 55.4458 261.345 55.037 259.927 54.4769C259.849 54.2473 258.011 48.6691 261.306 45.9248C262.499 44.9279 264.051 41.9764 265.038 38.476C265.038 38.476 273.634 35.8438 276.436 43.6846C279.237 51.5254 271.813 66.5686 274.121 73.8886Z" fill="black"/>
<path d="M269.835 128.595C237.255 147.178 218.376 132.588 213.529 127.889C219.144 125.078 223.151 123.112 223.762 122.653C226.003 120.973 225.073 106.204 225.073 106.204C227.69 109.267 231.231 112.281 236.09 115.372C236.09 115.372 239.452 117.612 241.693 117.612H241.985C244.226 117.612 247.589 115.372 247.589 115.372C252.677 112.135 256.319 108.987 258.964 105.773C258.706 110.203 258.174 122.401 260.006 123.773C260.612 124.227 264.433 126.019 269.835 128.595Z" fill="white"/>
<path d="M333.032 218.983C333.032 218.983 333.021 218.977 332.993 218.966C332.752 218.871 331.424 218.345 329.317 217.689C329.228 217.661 329.132 217.633 329.037 217.605C321.36 215.247 304.168 211.383 291.279 218.983C291.857 221.106 292.49 223.122 293.117 224.976C292.445 225.065 236.52 232.402 214.795 229.064C213.192 228.818 211.673 228.599 210.244 228.403C209.622 228.308 207.51 220.103 205.268 215.063C203.873 211.926 198.135 205.962 193.198 202.019C190.206 199.627 187.51 197.981 186.255 198.149C182.999 198.586 185.773 204.338 185.885 204.567C181.509 202.405 177.704 201.655 176.129 202.181C175.507 202.388 175.244 202.753 175.227 203.212C169.074 201.576 160.097 203.397 155.317 204.618C153.305 205.133 152.033 205.542 152.033 205.542C152.033 205.542 162.68 165.217 168.284 155.696C172.358 148.78 198.611 135.355 213.528 127.889C218.375 132.588 237.254 147.178 269.834 128.595C284.493 135.579 310.747 148.332 315.661 155.696C322.128 165.391 332.612 216.916 333.021 218.921C333.027 218.961 333.032 218.983 333.032 218.983Z" fill="#3AB795"/>
<path d="M297.73 236.345C288.764 246.986 254.022 241.385 225.263 256.625C222.445 258.12 219.648 259.386 216.886 260.45C203.476 265.653 190.913 266.123 180.843 264.589C171.832 263.222 164.816 260.248 161 257.627C154.668 253.275 154.483 227.978 154.926 213.489C155.049 209.479 155.217 206.298 155.318 204.618C160.098 203.397 169.075 201.576 175.228 203.212C175.138 205.245 179.857 209.109 179.857 209.109C177.789 208.499 176.063 208.376 175.009 208.902C170.526 211.142 179.212 216.032 179.212 216.032C178.91 216.037 178.624 216.088 178.372 216.183C173.889 217.863 188.649 227.222 188.649 227.222C189.803 227.081 191.804 226.941 194.987 227.025C198.489 227.115 203.426 227.479 210.245 228.403C211.674 228.599 213.193 228.818 214.796 229.064C236.521 232.402 292.446 225.065 293.118 224.976C295.416 231.719 297.73 236.345 297.73 236.345Z" fill="white"/>
<path d="M329.037 217.605C328.981 218.647 328.891 220.215 328.768 222.181C327.832 237.258 324.874 275.549 319.023 275.549C317.303 275.549 311.61 275.308 303.692 274.787C278.693 273.146 231.477 268.739 216.885 260.45C219.647 259.386 222.444 258.12 225.262 256.625C254.02 241.385 288.763 246.986 297.729 236.345C297.729 236.345 295.415 231.719 293.117 224.976C292.49 223.122 291.857 221.106 291.279 218.983C304.168 211.383 321.36 215.247 329.037 217.605Z" fill="white"/>
<path d="M194.986 227.026C191.803 226.942 189.803 227.082 188.648 227.222C188.648 227.222 173.888 217.863 178.371 216.183C178.623 216.088 178.909 216.037 179.212 216.032C184.199 215.892 194.986 227.026 194.986 227.026Z" fill="white"/>
<path d="M210.244 228.403C203.424 227.479 198.487 227.115 194.985 227.025C194.985 227.025 184.198 215.892 179.21 216.032C179.21 216.032 170.525 211.142 175.008 208.902C176.061 208.376 177.787 208.499 179.855 209.109C179.855 209.109 175.137 205.245 175.226 203.212C175.243 202.753 175.506 202.389 176.128 202.181C177.703 201.655 181.508 202.405 185.884 204.567C185.772 204.338 182.999 198.586 186.254 198.149C187.51 197.981 190.205 199.627 193.197 202.019C198.134 205.962 203.872 211.926 205.268 215.063C207.509 220.103 209.622 228.308 210.244 228.403Z" fill="white"/>
<path d="M155.317 204.618C155.216 206.298 155.048 209.479 154.925 213.489C149.411 211.361 152.033 205.542 152.033 205.542C152.033 205.542 153.305 205.133 155.317 204.618Z" fill="#17253F"/>
<path d="M240.28 369.981C240.476 360.465 239.473 350.082 239.473 350.082C242.297 350.199 245.16 350.278 248.046 350.311C249.358 376.908 240.28 369.981 240.28 369.981Z" fill="#86BAA1"/>
<path d="M311.577 339.362C308.058 341.446 303.368 342.756 303.368 342.756C286.792 348.732 266.944 350.53 248.048 350.311C245.162 350.278 242.299 350.199 239.474 350.082C207.04 348.715 179.492 342.196 179.492 342.196C179.492 342.196 174.712 340.857 171.182 338.74C168.672 337.234 166.794 335.33 167.725 333.235C169.736 328.71 178.971 275.443 180.843 264.589C190.913 266.123 203.476 265.653 216.886 260.45C231.478 268.739 278.694 273.146 303.693 274.787C306.988 293.561 313.505 330.132 315.135 333.795C316.082 335.918 314.138 337.844 311.577 339.362Z" fill="#3AB795"/>
<path d="M240.28 369.981C240.207 373.548 239.966 376.987 239.439 379.72H170.564L171.181 338.74C174.711 340.858 179.491 342.196 179.491 342.196C179.491 342.196 207.039 348.715 239.473 350.082C239.473 350.082 240.476 360.465 240.28 369.981Z" fill="#86BAA1"/>
<path d="M312.428 379.72H239.439C239.966 376.987 240.207 373.548 240.28 369.98C240.28 369.98 249.358 376.908 248.047 350.311C266.942 350.53 286.791 348.732 303.366 342.756C303.366 342.756 308.057 341.445 311.576 339.362C311.593 339.9 312.562 370.938 312.428 379.72Z" fill="#86BAA1"/>
<path d="M332.993 218.966C332.432 219.829 331.088 221.486 328.768 222.181C328.891 220.215 328.981 218.647 329.037 217.605C329.132 217.633 329.227 217.661 329.317 217.689C331.424 218.345 332.752 218.871 332.993 218.966Z" fill="#17253F"/>
<path d="M267.303 75.0143C267.275 75.3951 267.241 75.776 267.202 76.168C266.423 83.9304 266.126 90.3767 264.204 96.2293C263.117 99.5561 261.497 102.692 258.964 105.773C256.319 108.987 252.677 112.135 247.589 115.372C247.589 115.372 244.227 117.612 241.985 117.612H241.694C239.452 117.612 236.09 115.372 236.09 115.372C231.232 112.281 227.69 109.267 225.073 106.204C222.333 102.989 220.613 99.7129 219.475 96.2293C217.553 90.3767 217.256 83.9304 216.477 76.168C216.466 76.028 216.449 75.8936 216.438 75.7592C215.362 64.222 218.293 58.879 220.142 56.7172C220.82 55.9163 221.784 55.4122 222.826 55.2946C226.984 54.8018 231.092 53.9449 235.087 52.7015C245.241 49.5316 255.524 52.7295 259.928 54.4713C261.346 55.037 262.158 55.4458 262.158 55.4458C262.158 55.4458 268.575 59.187 267.303 75.0143Z" stroke="black" stroke-linecap="round" stroke-linejoin="round"/>
<path d="M216.437 75.7592C216.437 75.7592 208.632 71.1275 206.95 77.8482C205.269 84.5689 214.062 93.8883 219.475 96.2293" stroke="black" stroke-linecap="round" stroke-linejoin="round"/>
<path d="M267.302 75.0143C267.302 75.0143 278.117 68.8873 275.315 81.2086C272.513 93.5298 264.203 96.2293 264.203 96.2293" stroke="black" stroke-linecap="round" stroke-linejoin="round"/>
<path d="M259.934 54.477C259.934 54.477 257.95 48.7252 261.313 45.9249C264.675 43.1246 270.845 24.861 259.351 22.5088C247.858 20.1565 224.889 21.2823 217.043 32.4834C209.198 43.6846 207.646 51.8167 209.266 74.6335" stroke="black" stroke-linecap="round" stroke-linejoin="round"/>
<path d="M265.039 38.476C265.039 38.476 273.635 35.8438 276.437 43.6846C279.239 51.5254 271.808 66.5742 274.123 73.8942" stroke="black" stroke-linecap="round" stroke-linejoin="round"/>
<path d="M232.168 101.371C232.168 101.371 240.405 105.851 250.856 101.371" stroke="black" stroke-linecap="round" stroke-linejoin="round"/>
<path d="M238.893 89.0494L241.84 90.3543L245.062 89.0494" stroke="black" stroke-linecap="round" stroke-linejoin="round"/>
<path d="M227.684 86.2491C229.541 86.2491 231.047 81.7357 231.047 76.168C231.047 70.6004 229.541 66.087 227.684 66.087C225.828 66.087 224.322 70.6004 224.322 76.168C224.322 81.7357 225.828 86.2491 227.684 86.2491Z" fill="black"/>
<path d="M255.702 86.2491C257.559 86.2491 259.064 81.7357 259.064 76.168C259.064 70.6004 257.559 66.087 255.702 66.087C253.845 66.087 252.34 70.6004 252.34 76.168C252.34 81.7357 253.845 86.2491 255.702 86.2491Z" fill="black"/>
<path d="M220.4 64.9668C220.4 64.9668 224.883 58.2461 233.849 63.8467" stroke="black" stroke-linecap="round" stroke-linejoin="round"/>
<path d="M249.539 63.8467C249.539 63.8467 255.703 58.8062 262.988 64.4068" stroke="black" stroke-linecap="round" stroke-linejoin="round"/>
<path d="M269.835 128.595C237.255 147.178 218.376 132.588 213.529 127.889C219.144 125.078 223.151 123.112 223.762 122.653C226.003 120.973 225.073 106.204 225.073 106.204C227.69 109.267 231.231 112.281 236.09 115.372C236.09 115.372 239.452 117.612 241.693 117.612H241.985C244.226 117.612 247.589 115.372 247.589 115.372C252.677 112.135 256.319 108.987 258.964 105.773C258.706 110.203 258.174 122.401 260.006 123.773C260.612 124.227 264.433 126.019 269.835 128.595Z" stroke="black" stroke-linecap="round" stroke-linejoin="round"/>
<path d="M333.034 218.983C333.034 218.983 331.656 218.417 329.319 217.689C321.788 215.343 304.327 211.288 291.281 218.983C291.858 221.106 292.492 223.122 293.119 224.976C292.447 225.065 236.522 232.402 214.797 229.064C213.194 228.818 211.675 228.599 210.246 228.403C209.624 228.308 207.512 220.103 205.27 215.063C203.875 211.926 198.137 205.962 193.2 202.019C190.208 199.627 187.512 197.981 186.257 198.149C182.934 198.597 185.893 204.573 185.893 204.573C181.516 202.405 177.706 201.655 176.131 202.181C175.509 202.388 175.246 202.753 175.229 203.212C169.076 201.576 160.099 203.397 155.319 204.618C153.307 205.133 152.035 205.542 152.035 205.542C152.035 205.542 162.682 165.217 168.286 155.696C172.36 148.78 198.613 135.355 213.53 127.889C218.377 132.588 237.256 147.178 269.836 128.595C284.495 135.579 310.749 148.332 315.663 155.696C322.259 165.581 333.034 218.983 333.034 218.983Z" stroke="black" stroke-linecap="round" stroke-linejoin="round"/>
<path d="M155.318 204.618C155.217 206.298 155.049 209.479 154.926 213.489C154.483 227.978 154.668 253.275 161 257.627C169.966 263.788 196.511 271.864 225.263 256.625C254.022 241.385 288.764 246.986 297.73 236.345C297.73 236.345 295.416 231.719 293.118 224.976" stroke="black" stroke-linecap="round" stroke-linejoin="round"/>
<path d="M291.282 218.983C290.088 214.62 289.107 209.798 288.766 204.982" stroke="black" stroke-linecap="round" stroke-linejoin="round"/>
<path d="M187.314 227.457C187.314 227.457 187.696 227.339 188.648 227.222C189.802 227.081 191.803 226.941 194.986 227.025C198.488 227.115 203.425 227.479 210.245 228.403" stroke="black" stroke-linecap="round" stroke-linejoin="round"/>
<path d="M293.125 224.976H293.119" stroke="black" stroke-linecap="round" stroke-linejoin="round"/>
<path d="M216.887 260.45C231.479 268.739 278.695 273.146 303.694 274.787C311.612 275.308 317.305 275.549 319.025 275.549C325.638 275.549 328.557 226.628 329.039 217.605C329.089 216.687 329.112 216.183 329.112 216.183" stroke="black" stroke-linecap="round" stroke-linejoin="round"/>
<path d="M188.648 227.222C188.648 227.222 173.888 217.863 178.371 216.183C182.854 214.503 194.986 227.026 194.986 227.026" stroke="black" stroke-linecap="round" stroke-linejoin="round"/>
<path d="M179.212 216.032C179.212 216.032 170.527 211.142 175.01 208.902C179.493 206.662 196.304 216.183 199.106 225.144" stroke="black" stroke-linecap="round" stroke-linejoin="round"/>
<path d="M200.58 217.689C196.596 211.338 190.874 207.037 185.893 204.573" stroke="black" stroke-linecap="round" stroke-linejoin="round"/>
<path d="M179.856 209.109C179.856 209.109 175.138 205.245 175.228 203.212" stroke="black" stroke-linecap="round" stroke-linejoin="round"/>
<path d="M152.035 205.542C152.035 205.542 149.413 211.361 154.927 213.489" stroke="black" stroke-linecap="round" stroke-linejoin="round"/>
<path d="M194.062 194.901L193.199 202.019" stroke="black" stroke-linecap="round" stroke-linejoin="round"/>
<path d="M303.693 274.787C306.988 293.561 313.505 330.132 315.135 333.795C316.082 335.918 314.138 337.844 311.577 339.362C308.058 341.446 303.368 342.756 303.368 342.756C286.792 348.732 266.944 350.53 248.048 350.311C245.162 350.278 242.299 350.199 239.474 350.082C207.04 348.715 179.492 342.196 179.492 342.196C179.492 342.196 174.712 340.858 171.182 338.741C168.672 337.234 166.794 335.33 167.725 333.235C169.736 328.71 178.971 275.443 180.843 264.589" stroke="black" stroke-linecap="round" stroke-linejoin="round"/>
<path d="M171.183 338.74L170.566 379.72" stroke="black" stroke-linecap="round" stroke-linejoin="round"/>
<path d="M311.578 339.357C311.578 339.357 312.564 370.86 312.43 379.72" stroke="black" stroke-linecap="round" stroke-linejoin="round"/>
<path d="M239.475 350.082C239.475 350.082 240.478 360.465 240.282 369.981C240.209 373.548 239.968 376.987 239.441 379.72" stroke="black" stroke-linecap="round" stroke-linejoin="round"/>
<path d="M240.281 369.981C240.281 369.981 249.359 376.914 248.048 350.311" stroke="black" stroke-linecap="round" stroke-linejoin="round"/>
<path d="M339.775 0.280029L384.027 23.5225L432.779 31.9234L409.804 100.251L360.492 92.9698L316.223 68.8873L339.775 0.280029Z" stroke="black" stroke-linecap="round" stroke-linejoin="round"/>
<path d="M384.028 23.5225L360.492 92.9698" stroke="black" stroke-linecap="round" stroke-linejoin="round"/>
<path d="M400.794 26.4124L391.873 52.6455L423.932 58.2461" stroke="black" stroke-linecap="round" stroke-linejoin="round"/>
<path d="M332.211 22.3184L376.979 44.3231" stroke="black" stroke-linecap="round" stroke-linejoin="round"/>
<path d="M374.137 52.7071L329.336 30.6856" stroke="black" stroke-linecap="round" stroke-linejoin="round"/>
<path d="M324.628 61.0464L322.387 66.647L357.69 84.5689L359.931 79.5284L324.628 61.0464Z" stroke="black" stroke-linecap="round" stroke-linejoin="round"/>
<path d="M366.869 74.1518L398.597 80.6485L396.355 87.3692L364.633 80.7605" stroke="black" stroke-linecap="round" stroke-linejoin="round"/>
<path d="M402.217 99.1304L390.752 120.973L437.823 140.015L464.721 81.7686L422.049 63.8355" stroke="black" stroke-linecap="round" stroke-linejoin="round"/>
<path d="M449.87 92.9698C453.429 92.9698 456.314 90.0862 456.314 86.5291C456.314 82.972 453.429 80.0884 449.87 80.0884C446.311 80.0884 443.426 82.972 443.426 86.5291C443.426 90.0862 446.311 92.9698 449.87 92.9698Z" stroke="black" stroke-linecap="round" stroke-linejoin="round"/>
<path d="M420.721 67.7896L449.098 115.607" stroke="black" stroke-linecap="round" stroke-linejoin="round"/>
<path d="M144.769 87.7579L129.648 71.3576C127.305 68.8168 123.345 68.6551 120.803 70.9964L83.7317 105.138C81.1895 107.479 81.0277 111.437 83.3703 113.978L98.4912 130.378C100.834 132.919 104.794 133.081 107.336 130.739L144.407 96.5977C146.95 94.2564 147.111 90.2987 144.769 87.7579Z" stroke="black" stroke-linecap="round" stroke-linejoin="round"/>
<path d="M141.888 91.3171L125.662 73.7183C124.945 72.9403 123.732 72.8908 122.954 73.6077L86.6407 107.051C85.8623 107.768 85.8128 108.98 86.53 109.758L102.756 127.356C103.473 128.134 104.686 128.184 105.464 127.467L141.777 94.0236C142.556 93.3067 142.605 92.095 141.888 91.3171Z" stroke="black" stroke-linecap="round" stroke-linejoin="round"/>
<path d="M112.332 50.03C109.406 44.0598 97.5714 43.847 85.8933 49.5652C74.2208 55.2778 67.1322 64.754 70.0573 70.7242C71.4974 73.6645 75.1006 75.2047 79.7685 75.3279L89.2724 81.7686L93.4191 72.5612C94.4446 72.1468 95.47 71.6931 96.4955 71.1891C108.168 65.4765 115.257 56.0003 112.332 50.03ZM75.8459 67.8903C74.9605 66.0869 75.7058 63.9083 77.5158 63.0234C79.3202 62.1385 81.5056 62.8834 82.3854 64.6868C83.2708 66.4958 82.5255 68.6744 80.7211 69.5593C78.9111 70.4442 76.7313 69.6993 75.8459 67.8903ZM92.7971 63.6451C90.9927 64.53 88.8072 63.7851 87.9219 61.9817C87.0365 60.1727 87.7874 57.9941 89.5918 57.1092C91.3962 56.2243 93.5816 56.9692 94.467 58.7782C95.3524 60.5815 94.6015 62.7602 92.7971 63.6451ZM104.873 57.7364C103.069 58.6157 100.889 57.8709 100.003 56.0675C99.118 54.2585 99.8633 52.0799 101.668 51.195C103.478 50.3101 105.658 51.0549 106.543 52.8639C107.428 54.6673 106.683 56.8516 104.873 57.7364Z" stroke="black" stroke-linecap="round" stroke-linejoin="round"/>
<path d="M82.3849 64.6868C83.2703 66.4958 82.525 68.6744 80.7206 69.5593C78.9106 70.4442 76.7308 69.6993 75.8454 67.8903C74.96 66.087 75.7053 63.9083 77.5153 63.0234C79.3197 62.1385 81.5051 62.8834 82.3849 64.6868Z" stroke="black" stroke-linecap="round" stroke-linejoin="round"/>
<path d="M94.4677 58.7782C95.3531 60.5815 94.6022 62.7602 92.7978 63.6451C90.9934 64.53 88.8079 63.7851 87.9226 61.9817C87.0372 60.1727 87.7881 57.9941 89.5925 57.1092C91.3968 56.2243 93.5823 56.9692 94.4677 58.7782Z" stroke="black" stroke-linecap="round" stroke-linejoin="round"/>
<path d="M104.873 57.7364C103.069 58.6157 100.889 57.8708 100.004 56.0674C99.1184 54.2585 99.8636 52.0798 101.668 51.1949C103.478 50.31 105.658 51.0549 106.543 52.8639C107.429 54.6673 106.683 56.8515 104.873 57.7364Z" stroke="black" stroke-linecap="round" stroke-linejoin="round"/>
<path d="M80.7206 69.5593C78.9106 70.4442 76.7308 69.6993 75.8454 67.8903C74.96 66.0869 75.7053 63.9083 77.5153 63.0234C79.3197 62.1385 81.5051 62.8834 82.3849 64.6867C83.2703 66.4957 82.525 68.6744 80.7206 69.5593Z" stroke="black" stroke-linecap="round" stroke-linejoin="round"/>
<path d="M92.7958 63.6451C90.9914 64.53 88.806 63.7851 87.9206 61.9817C87.0352 60.1727 87.7861 57.9941 89.5905 57.1092C91.3949 56.2243 93.5803 56.9692 94.4657 58.7782C95.3511 60.5815 94.6002 62.7602 92.7958 63.6451Z" stroke="black" stroke-linecap="round" stroke-linejoin="round"/>
<path d="M104.873 57.7364C103.069 58.6157 100.889 57.8708 100.004 56.0674C99.1184 54.2585 99.8636 52.0798 101.668 51.1949C103.478 50.31 105.658 51.0549 106.543 52.8639C107.429 54.6673 106.683 56.8515 104.873 57.7364Z" stroke="black" stroke-linecap="round" stroke-linejoin="round"/>
<path d="M84.0246 195.519L1.58968 262.331C0.0753033 263.559 -0.156788 265.781 1.07128 267.294L43.9201 320.103C45.1482 321.617 47.3714 321.849 48.8858 320.622L131.321 253.809C132.835 252.581 133.067 250.359 131.839 248.846L88.9903 196.037C87.7622 194.523 85.539 194.291 84.0246 195.519Z" stroke="black" stroke-linecap="round" stroke-linejoin="round"/>
<path d="M84.3079 201.123L7.01758 263.766L48.5958 315.009L125.886 252.366L84.3079 201.123Z" stroke="black" stroke-linecap="round" stroke-linejoin="round"/>
<path d="M87.2895 204.797L9.99219 267.439" stroke="black" stroke-linecap="round" stroke-linejoin="round"/>
<path d="M108.599 234.335L35.043 293.952L47.0435 308.742L120.599 249.125L108.599 234.335Z" stroke="black" stroke-linecap="round" stroke-linejoin="round"/>
<path d="M12.0254 265.793L15.113 266.118L48.1076 239.375L51.156 236.905L84.1505 210.162L84.4755 207.076" stroke="black" stroke-linecap="round" stroke-linejoin="round"/>
<path d="M446.143 188.74V235.578H390.387V188.74H412.622V213.506L418.265 207.871L423.902 213.506V188.74H446.143Z" stroke="black" stroke-linecap="round" stroke-linejoin="round"/>
<path d="M423.903 188.74V213.506L418.266 207.871L412.623 213.506V188.74H423.903Z" stroke="black" stroke-linecap="round" stroke-linejoin="round"/>
<path d="M462.048 235.785L461.487 320.914H374.484L375.045 235.785H409.743V274.429L418.546 265.636L427.344 274.429V235.785H462.048Z" stroke="black" stroke-linecap="round" stroke-linejoin="round"/>
<path d="M427.343 235.785V274.429L418.546 265.636L409.742 274.429V235.785H427.343Z" stroke="black" stroke-linecap="round" stroke-linejoin="round"/>
<path d="M113.33 310.457L114.008 309.914L109.088 303.854L114.709 303.21L101.859 296.322L105.95 310.306L107.743 304.946L112.658 311.006L113.33 310.457Z" stroke="black" stroke-linecap="round" stroke-linejoin="round"/>
<path d="M333.034 218.983C333.034 218.983 331.79 221.587 328.77 222.248" stroke="black" stroke-linecap="round" stroke-linejoin="round"/>
<path d="M210.312 77.8482L215.653 89.6991" stroke="black" stroke-linecap="round" stroke-linejoin="round"/>
<path d="M272.811 77.8482L267.471 89.6991" stroke="black" stroke-linecap="round" stroke-linejoin="round"/>
</g>
<defs>
<clipPath id="clip0_460_279">
<rect width="465" height="380" fill="white"/>
</clipPath>
</defs>
</svg>
