<svg width="24" height="24" viewBox="0 0 24 24" fill="none" xmlns="http://www.w3.org/2000/svg">
<path fill-rule="evenodd" clip-rule="evenodd" d="M12 24C18.6274 24 24 18.6274 24 12C24 5.37259 18.6274 0 12 0C5.37258 0 0 5.37259 0 12C0 18.6274 5.37258 24 12 24ZM13.7775 5L16 5.00272L15.9933 7.90454L14.4027 7.90521C13.5119 7.90521 13.3499 8.25638 13.3499 8.95044V10.3939H15.9066L15.9086 13.4716H13.3499L13.3472 20H10.2272L10.2299 13.4716H8V10.3932H10.2299V8.69205C10.2299 6.44818 11.6222 5 13.7775 5Z" fill="white"/>
</svg>
