<svg width="24" height="24" viewBox="0 0 24 24" fill="none" xmlns="http://www.w3.org/2000/svg">
<path fill-rule="evenodd" clip-rule="evenodd" d="M24 12C24 18.6274 18.6274 24 12 24C5.37258 24 0 18.6274 0 12C0 5.37259 5.37258 0 12 0C18.6274 0 24 5.37259 24 12ZM5.85 9.64285C5.85 7.54813 7.54812 5.85001 9.64286 5.85001H14.3571C16.4518 5.85001 18.15 7.54813 18.15 9.64285V14.3571C18.15 16.4518 16.4518 18.15 14.3571 18.15H9.64286C7.54811 18.15 5.85 16.4518 5.85 14.3571V9.64285ZM9.64286 7.14999C8.26609 7.14999 7.15 8.26608 7.15 9.64285V14.3571C7.15 15.7339 8.26609 16.85 9.64286 16.85H14.3571C15.7339 16.85 16.85 15.7339 16.85 14.3571V9.64285C16.85 8.26608 15.7339 7.14999 14.3571 7.14999H9.64286ZM10.2926 12.0002C10.2926 11.0573 11.0569 10.2931 11.9997 10.2931C12.9426 10.2931 13.7069 11.0573 13.7069 12.0002C13.7069 12.4529 13.527 12.8872 13.2068 13.2073C12.8867 13.5275 12.4524 13.7074 11.9997 13.7074C11.0569 13.7074 10.2926 12.9431 10.2926 12.0002ZM11.9997 8.99307C10.3389 8.99307 8.99258 10.3394 8.99258 12.0002C8.99258 13.661 10.3389 15.0074 11.9997 15.0074C12.7972 15.0074 13.5621 14.6905 14.1261 14.1266C14.69 13.5626 15.0069 12.7977 15.0069 12.0002C15.0069 10.3394 13.6606 8.99307 11.9997 8.99307ZM14.25 8.85715C14.25 9.35025 14.6497 9.75 15.1429 9.75C15.636 9.75 16.0357 9.35025 16.0357 8.85715C16.0357 8.36404 15.636 7.96429 15.1429 7.96429C14.6497 7.96429 14.25 8.36404 14.25 8.85715Z" fill="white"/>
</svg>
