<svg width="24" height="24" viewBox="0 0 24 24" fill="none" xmlns="http://www.w3.org/2000/svg">
<path fill-rule="evenodd" clip-rule="evenodd" d="M12 24C18.6274 24 24 18.6274 24 12C24 5.37259 18.6274 0 12 0C5.37258 0 0 5.37259 0 12C0 18.6274 5.37258 24 12 24ZM10.4913 9.83878V13.8472C10.7693 13.7115 11.044 13.5779 11.3141 13.4464C12.4961 12.8714 13.5925 12.3379 14.5113 11.8526C14.1269 11.6567 13.7592 11.4648 13.396 11.2753C12.466 10.7901 11.5658 10.3203 10.4913 9.83878ZM17.6536 7.18671C18.1212 7.27005 18.5605 7.52179 18.8183 7.84521C19.7133 9.18723 19.7894 15.239 18.6718 16.3033C18.3902 16.5654 18.0331 16.7441 17.6296 16.8111C13.251 17.1252 7.42009 17.0006 6.28827 16.7776C5.8841 16.7 5.53223 16.5268 5.27524 16.2754C5.07577 16.0852 4.91738 15.7954 4.79486 15.3937C4.5035 14.4655 4.12473 8.73547 5.3335 7.66699C5.62038 7.41553 5.95433 7.25369 6.32936 7.18671C7.70324 6.93741 16.2789 6.93811 17.6536 7.18671Z" fill="white"/>
</svg>
