<svg width="40" height="48" viewBox="0 0 40 48" fill="none" xmlns="http://www.w3.org/2000/svg">
<path fill-rule="evenodd" clip-rule="evenodd" d="M27.2256 7.51264C28.9411 5.52443 30.0974 2.75525 29.781 0C27.3089 0.0941176 24.3181 1.57917 22.5456 3.56503C20.9538 5.32736 19.5643 8.14329 19.9379 10.8444C22.6955 11.0491 25.5102 9.50318 27.2256 7.51264ZM33.4094 25C33.4784 32.1223 39.9286 34.4915 40 34.5221C39.9477 34.6891 38.9698 37.8979 36.6024 41.2155C34.5538 44.0814 32.4291 46.9356 29.0815 46.9968C25.7933 47.0556 24.7345 45.1287 20.9729 45.1287C17.2136 45.1287 16.0382 46.9354 12.9261 47.0554C9.69504 47.1707 7.23248 43.9548 5.16964 41.0983C0.948788 35.2561 -2.27514 24.5884 2.05516 17.3886C4.20603 13.8145 8.04857 11.5477 12.2218 11.4913C15.3934 11.4324 18.389 13.5363 20.3281 13.5363C22.2672 13.5363 25.9075 11.0069 29.7334 11.3787C31.3346 11.4422 35.8315 11.9973 38.7176 16.0466C38.4844 16.1855 33.3523 19.0472 33.4094 25Z" fill="white"/>
</svg>
