<svg width="40" height="40" viewBox="0 0 40 40" fill="none" xmlns="http://www.w3.org/2000/svg">
<path d="M20.4269 18.1456V18.6456L20.9268 18.6456C21.5906 18.6456 22.238 18.8514 22.78 19.2346C23.3219 19.6178 23.7318 20.1596 23.9531 20.7853C23.9717 20.8382 23.9798 20.8942 23.9768 20.9501C23.9738 21.0062 23.9598 21.0611 23.9356 21.1117C23.9114 21.1623 23.8775 21.2077 23.8357 21.2452C23.794 21.2827 23.7453 21.3117 23.6924 21.3303C23.6395 21.349 23.5834 21.3571 23.5273 21.3541C23.4713 21.3511 23.4164 21.3371 23.3658 21.3129C23.2635 21.2641 23.1849 21.1766 23.1471 21.0697L23.147 21.0694C22.9847 20.6104 22.6839 20.213 22.2863 19.9319C21.8887 19.6509 21.4137 19.5 20.9267 19.5001L20.4269 19.5003V20.0001V23.7092V24.2092H20.9269C21.7779 24.2092 22.5942 24.5473 23.196 25.1491C23.7978 25.7509 24.1359 26.5671 24.1359 27.4182C24.1359 28.2693 23.7978 29.0856 23.196 29.6874C22.5942 30.2892 21.7779 30.6273 20.9269 30.6273H20.4269V31.1273V31.5545H19.5723V31.1273V30.6273L19.0723 30.6273C18.4086 30.6273 17.7612 30.4215 17.2192 30.0383C16.6772 29.6551 16.2674 29.1133 16.0461 28.4876L16.0463 28.4875L16.0412 28.4744C16.0207 28.4211 16.011 28.3642 16.0128 28.3071C16.0146 28.25 16.0279 28.1939 16.0518 28.142C16.0757 28.0901 16.1098 28.0435 16.152 28.005C16.1942 27.9665 16.2437 27.9369 16.2975 27.9178C16.3514 27.8988 16.4085 27.8908 16.4656 27.8942C16.5226 27.8976 16.5784 27.9125 16.6295 27.9378C16.6807 27.9632 16.7263 27.9986 16.7636 28.0419C16.8009 28.0851 16.8291 28.1355 16.8466 28.1898L16.8489 28.1969L16.8514 28.2039C17.1759 29.1186 18.0474 29.7728 19.0723 29.7728H19.5723V29.2728V25.5637V25.0637H19.0723C18.2212 25.0637 17.405 24.7256 16.8032 24.1238C16.2014 23.522 15.8633 22.7058 15.8633 21.8547C15.8633 21.0036 16.2014 20.1873 16.8032 19.5855C17.405 18.9837 18.2212 18.6456 19.0723 18.6456H19.5723V18.1456V17.7184H20.4269V18.1456ZM19.5723 20.0001V19.5001H19.0723C18.4479 19.5001 17.849 19.7482 17.4074 20.1898C16.9659 20.6313 16.7178 21.2302 16.7178 21.8547C16.7178 22.4791 16.9659 23.078 17.4074 23.5196C17.849 23.9611 18.4479 24.2092 19.0723 24.2092H19.5723V23.7092V20.0001ZM20.4269 29.2728V29.7728H20.9269C21.5513 29.7728 22.1502 29.5247 22.5918 29.0831C23.0333 28.6416 23.2814 28.0427 23.2814 27.4182C23.2814 26.7938 23.0333 26.1949 22.5918 25.7533C22.1502 25.3118 21.5513 25.0637 20.9269 25.0637H20.4269V25.5637V29.2728Z" fill="#3AB795" stroke="#3AB795"/>
<path d="M27.2695 12.5772L27.5001 12.8203C29.3981 14.8211 30.9858 17.0948 32.2105 19.5658L32.2115 19.5677C33.4873 22.1703 34.2037 24.8133 34.0867 27.13L34.0867 27.1301C33.9723 29.3912 33.0716 31.3572 31.0218 32.8059L31.0218 32.806C28.9129 34.296 25.4467 35.3336 20.0354 35.3336C14.6198 35.3336 11.1397 34.3141 9.01316 32.8421L9.01293 32.842C6.94943 31.4119 6.03763 29.472 5.91014 27.2374L27.2695 12.5772ZM27.2695 12.5772L26.957 12.698M27.2695 12.5772L26.957 12.698M26.957 12.698C22.6083 14.3797 17.3707 14.3797 13.0219 12.6998L12.8417 13.1662L12.4752 12.8262C10.6573 14.7856 8.96566 17.1897 7.75095 19.6928L7.75091 19.6929M26.957 12.698L7.75091 19.6929M7.75091 19.6929C6.48037 22.3123 5.7784 24.9432 5.91013 27.2371L7.75091 19.6929ZM29.8428 6.18137C30.2832 6.39921 30.6642 6.60758 30.9775 6.79426L27.8457 11.3725L27.614 11.7111L27.9009 12.0044C29.8394 13.9861 31.6697 16.5163 32.9805 19.1919C34.2935 21.8721 35.0679 24.6624 34.941 27.1735C34.8151 29.6637 33.8054 31.8862 31.5163 33.5035C29.2051 35.1363 25.5382 36.1881 20.0364 36.1881C14.5332 36.1881 10.8544 35.1551 8.52802 33.5441C6.22448 31.9489 5.1991 29.7543 5.05803 27.2856C4.91571 24.7951 5.67576 22.0152 6.98354 19.3201C8.2889 16.6299 10.1229 14.0598 12.0812 11.9992L12.3589 11.7071L12.1323 11.3737L9.02247 6.7979C9.17984 6.7052 9.3536 6.60745 9.54301 6.50655L9.54302 6.50655L9.54474 6.50562C9.73531 6.40314 9.94085 6.29766 10.1614 6.19011L10.3573 6.09457C12.6034 5.02399 16.1645 3.80943 20.0364 3.80943C23.9385 3.80943 27.4975 5.04282 29.7165 6.12004L29.8412 6.18055C29.8417 6.18082 29.8423 6.1811 29.8428 6.18137ZM29.2117 7.86176L29.7968 7.00634L28.7631 7.08076C26.1696 7.26749 23.1003 7.87478 20.1554 8.72739C18.1714 9.30054 15.9387 9.21927 13.8339 8.83104C13.3046 8.73292 12.779 8.61612 12.258 8.48085L10.9726 8.14711L11.7188 9.24572L13.4991 11.8671L13.591 12.0024L13.745 12.0572C17.6692 13.4543 22.2996 13.4542 26.2245 12.0592L26.0571 11.588L26.4698 11.8703L29.2117 7.86176ZM13.9877 7.99045L13.9881 7.99053C16.023 8.36533 18.1079 8.42978 19.9168 7.90581L19.9175 7.90559C21.8859 7.33215 23.888 6.88115 25.9122 6.55519L25.9768 5.58278C24.2353 5.05844 22.1905 4.66396 20.0354 4.66396C16.7536 4.66396 13.7063 5.57785 11.58 6.48033L11.7754 6.94059L11.6328 7.41983C12.3897 7.645 13.1821 7.8413 13.9877 7.99045Z" fill="#3AB795" stroke="#3AB795"/>
</svg>
