<svg width="48" height="10" viewBox="0 0 48 10" fill="none" xmlns="http://www.w3.org/2000/svg">
<g clip-path="url(#clip0_448_327)">
<path d="M3.79056 7.09127C4.55889 8.35101 5.96802 9.19621 7.5363 9.19621C9.8535 9.19621 11.1291 7.19648 11.1291 7.19648L11.2933 7.72916C10.2205 9.12439 8.304 9.96489 6.15984 9.96489C3.6912 9.96489 1.56218 8.78725 0.582553 7.08897C0.21371 6.44932 0.0078125 5.73483 0.0078125 4.98236C0.0078125 2.2306 2.76187 0 6.15975 0C8.56056 0 10.4935 1.02833 11.5082 2.51859L7.47988 4.93081L9.77885 1.40072C9.12113 0.987066 8.31419 0.599714 7.47988 0.599714C5.12141 0.599714 3.17889 2.56782 3.17889 4.92621C3.17889 5.71641 3.4033 6.45888 3.79056 7.09127ZM14.5767 7.08986C14.5647 7.17032 14.5586 7.25158 14.5587 7.33295C14.5587 8.22818 15.2845 8.95409 16.1798 8.95409C17.0751 8.95409 17.8009 8.22827 17.8009 7.33295C17.8009 7.25128 17.7948 7.16973 17.7827 7.08897C17.6655 6.30993 16.9925 5.7119 16.1797 5.7119C15.367 5.7119 14.694 6.30993 14.5767 7.08986ZM20.592 7.08897L21.3977 9.80292H18.5715L18.0158 7.94453C17.6437 9.01537 16.3878 9.80292 14.896 9.80292C13.111 9.80292 11.6642 8.67557 11.6642 7.28468C11.6642 7.21959 11.6673 7.15495 11.6735 7.08897C11.8005 5.7908 13.1947 4.76645 14.896 4.76645C15.8616 4.76645 16.7283 5.09642 17.3205 5.61953L16.5507 3.04568H13.307C13.307 3.04568 13.8467 2.722 16.2399 1.85121C18.6332 0.980513 19.3916 3.04568 19.3916 3.04568L20.592 7.08897ZM29.6282 7.08897V9.80292H26.7201V3.84014C26.7201 3.62943 26.6364 3.42736 26.4875 3.27837C26.3385 3.12938 26.1364 3.04568 25.9257 3.04568C25.7657 3.04564 25.6094 3.09393 25.4773 3.18422C25.3451 3.27451 25.2434 3.4026 25.1853 3.5517V9.80292H22.3311V3.04568H20.6666C20.6666 3.04568 22.9822 1.64284 23.7852 1.64284C24.5461 1.64284 25.1094 2.2275 25.1798 2.97227C26.2997 2.36822 27.4102 1.64284 28.1743 1.64284C28.9637 1.64284 29.6063 2.27195 29.6282 3.05631V7.08897ZM34.1081 7.08897L34.5128 8.42664C34.5206 8.99996 34.9917 9.4586 35.57 9.4586C36.1612 9.4586 36.6403 8.9795 36.6403 8.38838C36.6403 8.34649 36.6379 8.30531 36.6332 8.26475L36.2892 7.08897L35.081 2.95978C35.0215 2.42472 34.568 2.00876 34.0171 2.00876C33.4717 2.00876 32.9518 2.51832 32.8854 3.04559L34.1081 7.08897ZM38.7361 7.0895C38.1854 8.75944 36.6125 9.96489 34.7579 9.96489C32.9033 9.96489 31.3303 8.75953 30.7794 7.08897C30.6399 6.66557 30.5691 6.22258 30.5696 5.77681C30.5696 3.46377 32.4447 1.58882 34.7579 1.58882C37.071 1.58882 38.9461 3.46377 38.9461 5.77681C38.9461 6.23527 38.8724 6.67665 38.7361 7.0895ZM43.5511 7.08897V9.80292H40.6969V3.04568H39.1008C39.1008 3.04568 41.348 1.64284 42.151 1.64284C42.9121 1.64284 43.4752 2.2275 43.5458 2.97227C44.6657 2.36822 45.776 1.64284 46.5401 1.64284C47.3297 1.64284 47.9723 2.27195 47.9941 3.05631V9.80292H45.086V3.84014C45.086 3.62943 45.0023 3.42736 44.8533 3.27837C44.7043 3.12938 44.5022 3.04568 44.2915 3.04568C44.1315 3.04564 43.9752 3.09393 43.8431 3.18422C43.711 3.27451 43.6092 3.4026 43.5511 3.5517V7.08897Z" fill="white"/>
</g>
<defs>
<clipPath id="clip0_448_327">
<rect width="48" height="9.9648" fill="white"/>
</clipPath>
</defs>
</svg>
