<svg width="29" height="30" viewBox="0 0 29 30" fill="none" xmlns="http://www.w3.org/2000/svg">
<path d="M2.32623 0C1.86209 0 1.41695 0.185924 1.08875 0.51687C0.760552 0.847817 0.576172 1.29668 0.576172 1.76471C0.576172 2.23273 0.760552 2.6816 1.08875 3.01254C1.41695 3.34349 1.86209 3.52941 2.32623 3.52941H4.4613L4.99507 5.68588C5.00037 5.71071 5.00621 5.73542 5.01257 5.76L7.38915 15.3424L5.82635 16.9165C3.62127 19.14 5.18233 22.9412 8.30093 22.9412H23.3269C23.7911 22.9412 24.2362 22.7553 24.5644 22.4243C24.8926 22.0934 25.077 21.6445 25.077 21.1765C25.077 20.7084 24.8926 20.2596 24.5644 19.9286C24.2362 19.5977 23.7911 19.4118 23.3269 19.4118H8.30093L10.051 17.6471H21.5769C21.9018 17.6469 22.2202 17.5555 22.4966 17.3831C22.7729 17.2108 22.9962 16.9643 23.1414 16.6712L28.3916 6.08294C28.5249 5.81396 28.5878 5.5151 28.5744 5.21472C28.561 4.91433 28.4717 4.62238 28.3149 4.36658C28.1582 4.11077 27.9393 3.89959 27.6789 3.75308C27.4185 3.60656 27.1252 3.52957 26.827 3.52941H8.06642L7.5239 1.33588C7.4291 0.954271 7.21056 0.615545 6.903 0.373509C6.59543 0.131474 6.21649 1.03419e-05 5.82635 0H2.32623ZM25.077 27.3529C25.077 28.055 24.8004 28.7283 24.3081 29.2247C23.8158 29.7211 23.1481 30 22.4519 30C21.7557 30 21.088 29.7211 20.5957 29.2247C20.1034 28.7283 19.8268 28.055 19.8268 27.3529C19.8268 26.6509 20.1034 25.9776 20.5957 25.4812C21.088 24.9848 21.7557 24.7059 22.4519 24.7059C23.1481 24.7059 23.8158 24.9848 24.3081 25.4812C24.8004 25.9776 25.077 26.6509 25.077 27.3529ZM8.45143 30C9.14765 30 9.81535 29.7211 10.3077 29.2247C10.8 28.7283 11.0765 28.055 11.0765 27.3529C11.0765 26.6509 10.8 25.9776 10.3077 25.4812C9.81535 24.9848 9.14765 24.7059 8.45143 24.7059C7.75522 24.7059 7.08752 24.9848 6.59522 25.4812C6.10292 25.9776 5.82635 26.6509 5.82635 27.3529C5.82635 28.055 6.10292 28.7283 6.59522 29.2247C7.08752 29.7211 7.75522 30 8.45143 30Z" fill="white"/>
</svg>
