<svg width="41" height="40" viewBox="0 0 41 40" fill="none" xmlns="http://www.w3.org/2000/svg">
<path d="M20.5003 37.2727C30.0397 37.2727 37.773 29.5395 37.773 20C37.773 10.4605 30.0397 2.72727 20.5003 2.72727C10.9608 2.72727 3.22754 10.4605 3.22754 20C3.22754 29.5395 10.9608 37.2727 20.5003 37.2727Z" stroke="#3AB795" stroke-width="2" stroke-linecap="round" stroke-linejoin="round"/>
<path d="M25.5914 14.547C25.262 13.9758 24.7834 13.5049 24.207 13.1848C23.6305 12.8646 22.9777 12.7071 22.3186 12.7293H18.6823C17.7178 12.7293 16.7929 13.1123 16.111 13.7941C15.429 14.4759 15.0459 15.4005 15.0459 16.3647C15.0459 17.3288 15.429 18.2535 16.111 18.9352C16.7929 19.617 17.7178 20 18.6823 20H22.3186C23.283 20 24.208 20.383 24.8899 21.0648C25.5719 21.7465 25.955 22.6712 25.955 23.6353C25.955 24.5995 25.5719 25.5241 24.8899 26.2059C24.208 26.8877 23.283 27.2707 22.3186 27.2707H18.6823C18.0232 27.2929 17.3704 27.1354 16.7939 26.8152C16.2174 26.4951 15.7389 26.0242 15.4095 25.453" stroke="#3AB795" stroke-width="2.75" stroke-linecap="round" stroke-linejoin="round"/>
<path d="M20.5 8.18182V12.1212M20.5 27.8788V31.8182" stroke="#3AB795" stroke-width="2.75" stroke-linecap="round" stroke-linejoin="round"/>
</svg>
