<svg width="48" height="8" viewBox="0 0 48 8" fill="none" xmlns="http://www.w3.org/2000/svg">
<g clip-path="url(#clip0_448_323)">
<path fill-rule="evenodd" clip-rule="evenodd" d="M46.2769 0.262128H47.9649C47.7779 0.407203 47.6658 0.584881 47.6658 0.828068V6.64032C47.6658 6.8832 47.7827 7.0564 47.9649 7.20117H46.2769C46.4591 7.0564 46.5713 6.87872 46.5713 6.64032V0.827769C46.5716 0.584582 46.4639 0.406904 46.2769 0.262128ZM7.15471 2.7589C6.87892 2.16515 6.57501 1.58066 6.06531 1.15531C5.523 0.697053 4.83532 0.421263 4.1246 0.421263C2.23564 0.421263 1.38913 2.12776 1.38913 3.80643C1.38913 5.42917 2.19825 7.07016 4.0217 7.07016C4.76502 7.07016 5.49009 6.7477 5.94805 6.16292V4.85366C5.94805 4.4983 5.83109 4.26947 5.5553 4.05919H7.48644C7.28064 4.2928 7.15471 4.5312 7.15471 4.85366V6.16292C6.2708 6.98611 5.17213 7.49072 3.95171 7.49072C1.79623 7.49072 0.0332031 5.90567 0.0332031 3.69875C0.0332031 1.50588 1.7726 0.00488281 3.90026 0.00488281C5.22358 0.00488281 6.29414 0.491258 7.15471 1.46849V2.7589ZM11.8865 0.262128H13.7055C13.4575 0.444294 13.3735 0.650091 13.3735 0.954V5.19526C13.3735 6.35914 14.7387 6.92987 15.7395 6.92987C16.7215 6.92987 18.0027 6.35495 18.0027 5.21859V0.954C18.0027 0.668637 17.9324 0.472411 17.741 0.262128H18.7322C18.5312 0.467925 18.4565 0.673423 18.4565 0.954V5.21859C18.4565 6.75219 16.6471 7.34116 15.3937 7.34116C14.1033 7.34116 12.2189 6.77104 12.2189 5.19526V0.954C12.2186 0.66415 12.1016 0.44908 11.8865 0.262128ZM30.1034 2.78224C29.8605 2.16963 29.5751 1.63211 29.0747 1.18791C28.5372 0.710812 27.8824 0.41169 27.1579 0.41169C25.2878 0.41169 24.3291 2.04819 24.3291 3.74571C24.3291 5.4522 25.3252 7.06537 27.172 7.06537C28.5468 7.06537 29.5288 6.09741 30.1037 4.93293V6.19552C29.2485 7.04204 28.1447 7.47218 26.9384 7.47218C24.703 7.47218 23.0291 6.02742 23.0291 3.72238C23.0291 1.48285 24.6375 0.00996967 26.8307 0.00996967C28.0463 0.00996967 29.2243 0.430833 30.1034 1.26778V2.78224ZM41.8305 2.78224C41.5876 2.16963 41.3016 1.63211 40.8018 1.18791C40.2643 0.710812 39.6095 0.41169 38.885 0.41169C37.0143 0.41169 36.0604 2.04819 36.0604 3.74571C36.0604 5.4522 37.0517 7.06537 38.8991 7.06537C40.2739 7.06537 41.2601 6.09741 41.8308 4.93293V6.19552C40.975 7.04204 39.876 7.47218 38.6655 7.47218C36.4301 7.47218 34.7565 6.02742 34.7565 3.72238C34.7565 1.48285 36.3649 0.00996967 38.5575 0.00996967C39.7731 0.00996967 40.9517 0.430833 41.8308 1.26778L41.8305 2.78224Z" fill="white"/>
</g>
<defs>
<clipPath id="clip0_448_323">
<rect width="48" height="7.4955" fill="white"/>
</clipPath>
</defs>
</svg>
