<svg width="41" height="40" viewBox="0 0 41 40" fill="none" xmlns="http://www.w3.org/2000/svg">
<path d="M13.8337 25C13.8337 23.159 12.3413 21.6666 10.5003 21.6666C8.65938 21.6666 7.16699 23.159 7.16699 25V28.3333C7.16699 30.1742 8.65938 31.6666 10.5003 31.6666C12.3413 31.6666 13.8337 30.1742 13.8337 28.3333V25Z" stroke="white" stroke-width="2" stroke-linecap="round" stroke-linejoin="round"/>
<path d="M33.8337 25C33.8337 23.159 32.3413 21.6666 30.5003 21.6666C28.6594 21.6666 27.167 23.159 27.167 25V28.3333C27.167 30.1742 28.6594 31.6666 30.5003 31.6666C32.3413 31.6666 33.8337 30.1742 33.8337 28.3333V25Z" stroke="white" stroke-width="2" stroke-linecap="round" stroke-linejoin="round"/>
<path d="M7.16699 25V20C7.16699 16.4637 8.57175 13.0724 11.0722 10.5719C13.5727 8.07138 16.9641 6.66663 20.5003 6.66663C24.0365 6.66663 27.4279 8.07138 29.9284 10.5719C32.4289 13.0724 33.8337 16.4637 33.8337 20V25" stroke="white" stroke-width="2" stroke-linecap="round" stroke-linejoin="round"/>
<path d="M30.5 31.6666C30.5 32.9927 29.4464 34.2645 27.5711 35.2022C25.6957 36.1398 23.1522 36.6666 20.5 36.6666" stroke="white" stroke-width="2" stroke-linecap="round" stroke-linejoin="round"/>
</svg>
