<svg width="46" height="46" viewBox="0 0 46 46" fill="none" xmlns="http://www.w3.org/2000/svg">
<path fill-rule="evenodd" clip-rule="evenodd" d="M35.4593 22.0616C38.6891 22.0616 41.9188 22.0616 45.1486 22.0616C46.1176 21.5082 46.1176 20.9547 45.8407 20.2629C43.2569 17.4032 40.673 14.5434 38.0893 11.6837C37.6741 11.2686 37.1203 11.407 36.7051 11.5455C33.7983 13.0214 30.8915 14.4973 27.9848 15.9733C22.079 10.7152 16.1731 5.45699 10.2674 0.198924C9.0216 -0.354617 8.60635 0.33735 8.60635 1.16758C9.20617 3.75045 9.806 6.33347 10.4058 8.91634C7.40669 7.53257 4.40771 6.14896 1.40857 4.76519C0.578064 4.4885 -0.390743 4.90362 0.162819 6.28722C5.19196 16.0194 10.2213 25.7515 15.2504 35.4837C13.3587 38.5279 11.467 41.572 9.57533 44.6162C9.29838 45.1698 9.57533 46 10.8211 46C18.5263 42.7713 26.2316 39.5427 33.9368 36.3139C34.352 36.1755 34.6288 35.8988 34.6288 35.6221C34.9056 31.1019 35.1825 26.5818 35.4593 22.0616Z" fill="#3AB795"/>
<path fill-rule="evenodd" clip-rule="evenodd" d="M42.6572 19.9857L37.8127 14.5892L36.0132 19.9857H42.6572Z" fill="#86BAA1"/>
<path fill-rule="evenodd" clip-rule="evenodd" d="M35.5977 14.4509L33.5214 20.6776L32.8294 29.6717L28.9536 17.7718L35.5977 14.4509Z" fill="url(#paint0_linear_24_203)"/>
<path fill-rule="evenodd" clip-rule="evenodd" d="M13.1738 42.8172L32.2754 34.7918L27.4308 19.5708L13.1738 42.8172Z" fill="#A0E8AF"/>
<path fill-rule="evenodd" clip-rule="evenodd" d="M15.9414 32.3013L3.34551 7.94775L11.0968 11.5455L15.9414 32.3013Z" fill="#86BAA1"/>
<path fill-rule="evenodd" clip-rule="evenodd" d="M26.4619 17.3567L11.3743 3.93457L17.8801 31.1937L26.4619 17.3567Z" fill="#A0E8AF"/>
<defs>
<linearGradient id="paint0_linear_24_203" x1="35.6188" y1="14.4854" x2="28.2659" y2="17.0814" gradientUnits="userSpaceOnUse">
<stop stop-color="#A0E8AF"/>
<stop offset="0.697717" stop-color="#A0E8AF"/>
<stop offset="0.697817" stop-color="#86BAA1"/>
<stop offset="0.697917" stop-color="#86BAA1"/>
<stop offset="1" stop-color="#86BAA1"/>
</linearGradient>
</defs>
</svg>
