<svg width="58" height="58" viewBox="0 0 58 58" fill="none" xmlns="http://www.w3.org/2000/svg">
<path fill-rule="evenodd" clip-rule="evenodd" d="M44.7096 27.8168C48.782 27.8168 52.8541 27.8168 56.9265 27.8168C58.1483 27.119 58.1483 26.4211 57.7991 25.5488C54.5413 21.9431 51.2834 18.3374 48.0257 14.7316C47.5021 14.2082 46.8039 14.3828 46.2803 14.5573C42.6153 16.4183 38.9502 18.2793 35.2851 20.1402C27.8388 13.5105 20.3922 6.88056 12.9458 0.250817C11.3751 -0.447126 10.8515 0.425355 10.8515 1.47217C11.6078 4.72882 12.3641 7.98568 13.1204 11.2423C9.33887 9.49758 5.55755 7.75303 1.77602 6.00828C0.728863 5.65941 -0.49268 6.18282 0.205292 7.92737C6.54638 20.1984 12.8877 32.4693 19.2288 44.7403C16.8436 48.5787 14.4584 52.4169 12.0732 56.2552C11.724 56.9532 12.0732 58 13.644 58C23.3593 53.929 33.0746 49.8582 42.7899 45.7871C43.3134 45.6126 43.6624 45.2637 43.6624 44.9149C44.0114 39.2155 44.3606 33.5161 44.7096 27.8168Z" fill="white"/>
<path fill-rule="evenodd" clip-rule="evenodd" d="M53.7852 25.1993L47.6768 18.395L45.4079 25.1993H53.7852Z" fill="#86BAA1"/>
<path fill-rule="evenodd" clip-rule="evenodd" d="M44.8838 18.2207L42.2659 26.0718L41.3933 37.4122L36.5065 22.4079L44.8838 18.2207Z" fill="url(#paint0_linear_59_209)"/>
<path fill-rule="evenodd" clip-rule="evenodd" d="M16.6106 53.987L40.6953 43.868L34.5869 24.6763L16.6106 53.987Z" fill="#A0E8AF"/>
<path fill-rule="evenodd" clip-rule="evenodd" d="M20.0996 40.7276L4.21782 10.021L13.9913 14.5573L20.0996 40.7276Z" fill="#86BAA1"/>
<path fill-rule="evenodd" clip-rule="evenodd" d="M33.3652 21.8845L14.3418 4.96094L22.5446 39.3312L33.3652 21.8845Z" fill="#A0E8AF"/>
<defs>
<linearGradient id="paint0_linear_59_209" x1="44.9104" y1="18.2642" x2="35.6394" y2="21.5375" gradientUnits="userSpaceOnUse">
<stop stop-color="#A0E8AF"/>
<stop offset="0.697717" stop-color="#A0E8AF"/>
<stop offset="0.697817" stop-color="#86BAA1"/>
<stop offset="0.697917" stop-color="#86BAA1"/>
<stop offset="1" stop-color="#86BAA1"/>
</linearGradient>
</defs>
</svg>
