<svg width="26" height="25" viewBox="0 0 26 25" fill="none" xmlns="http://www.w3.org/2000/svg">
<path fill-rule="evenodd" clip-rule="evenodd" d="M12.8858 23.75C19.114 23.75 24.1631 18.7132 24.1631 12.5C24.1631 6.28681 19.114 1.25 12.8858 1.25C6.65753 1.25 1.6085 6.28681 1.6085 12.5C1.6085 18.7132 6.65753 23.75 12.8858 23.75ZM12.8858 25C19.8061 25 25.4161 19.4036 25.4161 12.5C25.4161 5.59644 19.8061 0 12.8858 0C5.96548 0 0.355469 5.59644 0.355469 12.5C0.355469 19.4036 5.96548 25 12.8858 25Z" fill="#333333" fill-opacity="0.3"/>
<path fill-rule="evenodd" clip-rule="evenodd" d="M5.99414 12.5C5.99414 12.1548 6.27463 11.875 6.62066 11.875H19.151C19.497 11.875 19.7775 12.1548 19.7775 12.5C19.7775 12.8452 19.497 13.125 19.151 13.125H6.62066C6.27463 13.125 5.99414 12.8452 5.99414 12.5Z" fill="#333333"/>
</svg>
