<svg width="193" height="118" viewBox="0 0 193 118" fill="none" xmlns="http://www.w3.org/2000/svg">
<path d="M112.941 102.473H150.389L176.909 75.7892L169.358 63.3682L117.975 81.6927L112.941 102.473Z" fill="#191720"/>
<path d="M59.5558 1.04744L54.8902 1.68179C53.8829 1.8192 52.9131 2.15618 52.0376 2.67303C51.1622 3.18987 50.3986 3.87619 49.7917 4.69178C49.1848 5.50737 48.7467 6.43586 48.503 7.42288C48.2594 8.40989 48.2151 9.43558 48.3728 10.4399L48.9355 14.0516C49.2326 15.9305 50.1903 17.6417 51.6363 18.8777C53.0823 20.1136 54.9217 20.7932 56.824 20.7942H57.09C57.09 20.7942 30.9076 43.3443 27.3164 60.0011L56.5375 95.3815C58.3719 97.6164 60.6782 99.4175 63.2909 100.656C65.9036 101.894 68.758 102.539 71.6493 102.544H112.944C112.944 102.544 124.403 74.0182 174.455 71.7571C174.455 71.7571 179.571 58.5278 165.769 46.823L112.944 50.404L101.351 58.1492L102.804 68.2477C103.304 71.6839 102.595 75.1873 100.798 78.1585C99.0008 81.1296 96.227 83.3841 92.9512 84.5362C88.9441 85.9462 84.5967 86.0701 80.5157 84.8907C76.4347 83.7114 72.8236 81.2875 70.1862 77.9574C62.2978 68.0226 55.1153 51.3555 66.7996 29.2556C66.7996 29.2556 81.4715 8.4141 67.4135 2.13198C64.9464 1.04545 62.2249 0.669818 59.5558 1.04744Z" fill="#FF5331"/>
<path d="M53.0988 2.16357L56.8128 20.7951H48.4742L45.8242 4.62936L53.0988 2.16357Z" fill="#FF5331"/>
<path opacity="0.51" d="M53.0988 2.16357L56.8128 20.7951H48.4742L45.8242 4.62936L53.0988 2.16357Z" fill="white"/>
<path d="M68.0563 19.1674C70.4692 19.1674 72.4252 17.2114 72.4252 14.7985C72.4252 12.3857 70.4692 10.4297 68.0563 10.4297C65.6435 10.4297 63.6875 12.3857 63.6875 14.7985C63.6875 17.2114 65.6435 19.1674 68.0563 19.1674Z" fill="#FF5331"/>
<path d="M23.9914 117.677C36.9654 117.677 47.4829 107.159 47.4829 94.1855C47.4829 81.2115 36.9654 70.694 23.9914 70.694C11.0175 70.694 0.5 81.2115 0.5 94.1855C0.5 107.159 11.0175 117.677 23.9914 117.677Z" fill="#191720"/>
<path d="M23.9929 109.901C32.6723 109.901 39.7084 102.865 39.7084 94.1857C39.7084 85.5063 32.6723 78.4702 23.9929 78.4702C15.3134 78.4702 8.27734 85.5063 8.27734 94.1857C8.27734 102.865 15.3134 109.901 23.9929 109.901Z" fill="white"/>
<path d="M23.9846 111.435C20.5729 111.435 17.2377 110.423 14.4009 108.527C11.5641 106.632 9.35311 103.938 8.04748 100.786C6.74185 97.6337 6.40024 94.1652 7.06584 90.819C7.73145 87.4728 9.37437 84.3991 11.7869 81.9866C14.1994 79.5741 17.2731 77.9312 20.6193 77.2655C23.9655 76.5999 27.4339 76.9416 30.586 78.2472C33.7381 79.5528 36.4322 81.7638 38.3277 84.6006C40.2232 87.4374 41.2349 90.7726 41.2349 94.1843C41.2322 98.7586 39.4139 103.145 36.1794 106.379C32.9449 109.614 28.5589 111.432 23.9846 111.435ZM23.9846 80.0035C21.1799 80.0035 18.4382 80.8352 16.1062 82.3934C13.7742 83.9516 11.9566 86.1664 10.8833 88.7576C9.80996 91.3488 9.52914 94.2001 10.0763 96.9509C10.6235 99.7017 11.9741 102.228 13.9573 104.212C15.9405 106.195 18.4673 107.545 21.2181 108.093C23.9689 108.64 26.8202 108.359 29.4114 107.286C32.0026 106.212 34.2173 104.395 35.7756 102.063C37.3338 99.7307 38.1654 96.989 38.1654 94.1843C38.1627 90.4242 36.6678 86.8188 34.009 84.16C31.3502 81.5012 27.7448 80.0062 23.9846 80.0035Z" fill="#FFCF54"/>
<path opacity="0.11" d="M136.677 82.0717C136.677 82.0717 127.469 93.4081 125.535 102.473H147.021L154.009 90.0011L147.39 78.4702L136.677 82.0717Z" fill="white"/>
<path d="M166.198 117.677C179.172 117.677 189.69 107.159 189.69 94.1853C189.69 81.2113 179.172 70.6938 166.198 70.6938C153.225 70.6938 142.707 81.2113 142.707 94.1853C142.707 107.159 153.225 117.677 166.198 117.677Z" fill="#191720"/>
<path d="M166.2 109.901C174.879 109.901 181.915 102.865 181.915 94.1858C181.915 85.5064 174.879 78.4703 166.2 78.4703C157.52 78.4703 150.484 85.5064 150.484 94.1858C150.484 102.865 157.52 109.901 166.2 109.901Z" fill="white"/>
<path d="M166.185 111.435C162.774 111.433 159.44 110.419 156.604 108.522C153.769 106.626 151.56 103.931 150.255 100.779C148.951 97.6264 148.611 94.1583 149.278 90.8127C149.945 87.4672 151.589 84.3944 154.001 81.983C156.414 79.5715 159.488 77.9296 162.834 77.2648C166.18 76.6 169.648 76.9422 172.799 78.2482C175.951 79.5541 178.644 81.7651 180.539 84.6017C182.434 87.4382 183.446 90.773 183.446 94.1843C183.44 98.7595 181.62 103.146 178.384 106.38C175.148 109.614 170.761 111.432 166.185 111.435ZM166.185 80.0035C163.381 80.0056 160.64 80.839 158.31 82.3984C155.979 83.9578 154.163 86.1733 153.091 88.7647C152.02 91.356 151.74 94.207 152.288 96.9571C152.837 99.7073 154.188 102.233 156.172 104.215C158.155 106.197 160.682 107.547 163.433 108.093C166.183 108.64 169.034 108.358 171.625 107.285C174.215 106.211 176.429 104.394 177.987 102.062C179.545 99.7299 180.376 96.9886 180.376 94.1843C180.371 90.4232 178.874 86.8179 176.213 84.1594C173.553 81.5008 169.946 80.0062 166.185 80.0035Z" fill="#FFCF54"/>
<path opacity="0.08" d="M68.0563 19.1674C70.4692 19.1674 72.4252 17.2114 72.4252 14.7985C72.4252 12.3857 70.4692 10.4297 68.0563 10.4297C65.6435 10.4297 63.6875 12.3857 63.6875 14.7985C63.6875 17.2114 65.6435 19.1674 68.0563 19.1674Z" fill="#191720"/>
<path d="M27.3213 60.0024C27.3213 60.0024 13.9284 61.5883 7.01189 72.8122C6.73243 73.2568 6.58864 73.7733 6.59809 74.2983C6.60755 74.8234 6.76985 75.3343 7.06514 75.7685C7.36043 76.2028 7.77591 76.5415 8.26072 76.7433C8.74552 76.9451 9.27865 77.0013 9.79485 76.9048C17.8572 75.5031 34.2583 75.544 53.4525 91.6688L27.3213 60.0024Z" fill="#FF5331"/>
<path opacity="0.08" d="M27.3213 60.0024C27.3213 60.0024 13.9284 61.5883 7.01189 72.8122C6.73243 73.2568 6.58864 73.7733 6.59809 74.2983C6.60755 74.8234 6.76985 75.3343 7.06514 75.7685C7.36043 76.2028 7.77591 76.5415 8.26072 76.7433C8.74552 76.9451 9.27865 77.0013 9.79485 76.9048C17.8572 75.5031 34.2583 75.544 53.4525 91.6688L27.3213 60.0024Z" fill="#191720"/>
<path d="M102.17 58.0784C102.17 58.0784 90.25 48.5427 95.3658 40.3268C100.481 32.1109 124.546 40.8895 143.249 34.6586C161.952 28.4276 179.417 33.3387 166.577 46.7522L102.17 58.0784Z" fill="#FF5331"/>
<path opacity="0.17" d="M102.17 58.0784C102.17 58.0784 90.25 48.5427 95.3658 40.3268C100.481 32.1109 124.546 40.8895 143.249 34.6586C161.952 28.4276 179.417 33.3387 166.577 46.7522L102.17 58.0784Z" fill="#191720"/>
<path d="M124.862 87.9843C124.862 87.9843 111.909 75.2666 124.862 65.475C136.465 56.676 163.026 51.2124 179.764 62.9376C180.412 63.4047 180.926 64.0329 181.256 64.7598C181.586 65.4868 181.721 66.2874 181.647 67.0823C181.572 67.8773 181.291 68.639 180.832 69.292C180.373 69.9451 179.751 70.4668 179.028 70.8056C167.855 76.1362 143.617 86.7565 124.862 87.9843Z" fill="#FF5331"/>
<path opacity="0.08" d="M124.862 87.9843C124.862 87.9843 111.909 75.2666 124.862 65.475C136.465 56.676 163.026 51.2124 179.764 62.9376C180.412 63.4047 180.926 64.0329 181.256 64.7598C181.586 65.4868 181.721 66.2874 181.647 67.0823C181.572 67.8773 181.291 68.639 180.832 69.292C180.373 69.9451 179.751 70.4668 179.028 70.8056C167.855 76.1362 143.617 86.7565 124.862 87.9843Z" fill="#191720"/>
<path d="M181.587 67.3882C184.335 71.7883 187.873 75.6421 192.023 78.7553C192.31 78.9741 192.512 79.2866 192.592 79.6384C192.673 79.9902 192.628 80.3591 192.465 80.6812C192.302 81.0034 192.032 81.2583 191.701 81.4017C191.369 81.5452 190.998 81.5682 190.652 81.4667C184.788 79.831 179.499 76.5842 175.387 72.0947L181.587 67.3882Z" fill="#FF5331"/>
<path opacity="0.17" d="M46.9775 46.8231C47.0353 46.1991 46.8876 45.5732 46.557 45.0409C46.2263 44.5085 45.7307 44.0987 45.1457 43.874C44.5607 43.6492 43.9182 43.6218 43.3162 43.7959C42.7141 43.9699 42.1854 44.3359 41.8106 44.8382C37.585 50.4553 33.7891 57.2183 36.0196 61.2802C40.3679 69.2096 45.6269 70.7443 47.4788 65.3728C48.7782 61.5769 46.251 55.2743 46.9775 46.8231Z" fill="white"/>
</svg>
