<svg width="48" height="48" viewBox="0 0 48 48" fill="none" xmlns="http://www.w3.org/2000/svg">
<path d="M4.89213 36.3721C1.33113 35.3506 0.741625 33.2461 2.35713 32.0236C3.52113 31.2586 4.85913 30.5926 6.27513 30.0916L6.40563 30.0511L16.9311 26.2771V30.6121L9.38613 33.3706C8.06463 33.8791 7.83963 34.5556 8.93763 34.9186C9.48513 35.0581 10.1121 35.1391 10.7586 35.1391C11.6811 35.1391 12.5646 34.9756 13.3821 34.6771L13.3296 34.6936L16.9626 33.3706V37.2586C16.7376 37.3141 16.4826 37.3411 16.2321 37.3951C15.0696 37.5991 13.7316 37.7161 12.3666 37.7161C9.69963 37.7161 7.13763 37.2691 4.74963 36.4471L4.91463 36.4966L4.89213 36.3721ZM27.0726 36.8161L38.8746 32.5516C40.2141 32.0686 40.4226 31.3801 39.3351 31.0186C38.7906 30.8851 38.1666 30.8086 37.5231 30.8086C36.5901 30.8086 35.6931 30.9706 34.8621 31.2661L34.9176 31.2496L27.0351 34.0606V29.5861L27.4851 29.4271C29.0601 28.9036 30.9111 28.4971 32.8206 28.2856L32.9451 28.2736C33.6471 28.1986 34.4601 28.1566 35.2836 28.1566C38.0991 28.1566 40.7991 28.6531 43.2981 29.5651L43.1361 29.5126C46.5996 30.6391 46.9596 32.2711 46.0896 33.3961C45.2511 34.2316 44.2371 34.8931 43.1076 35.3191L43.0491 35.3386L27.0336 41.1631V36.8596L27.0726 36.8161ZM18.3456 6.37207V39.2626L25.6836 41.6266V14.0416C25.6836 12.7486 26.2536 11.8846 27.1716 12.1846C28.3641 12.5221 28.5966 13.7101 28.5966 15.0061V26.0191C33.1716 28.2556 36.7731 26.0146 36.7731 20.1106C36.7731 14.0431 34.6626 11.3476 28.4541 9.18757C25.7766 8.21557 22.3941 7.24657 18.9336 6.48007L18.3501 6.37207H18.3456Z" fill="white"/>
</svg>
