<svg width="28" height="28" viewBox="0 0 28 28" fill="none" xmlns="http://www.w3.org/2000/svg">
<path d="M14.1396 14.91C14.0579 14.8983 13.9529 14.8983 13.8596 14.91C11.8062 14.84 10.1729 13.16 10.1729 11.095C10.1729 8.98331 11.8762 7.26831 13.9996 7.26831C16.1112 7.26831 17.8262 8.98331 17.8262 11.095C17.8146 13.16 16.1929 14.84 14.1396 14.91Z" stroke="black" stroke-linecap="round" stroke-linejoin="round"/>
<path d="M21.8634 22.6101C19.7867 24.5118 17.0334 25.6668 14 25.6668C10.9667 25.6668 8.21339 24.5118 6.13672 22.6101C6.25339 21.5135 6.95339 20.4401 8.20172 19.6001C11.3984 17.4768 16.625 17.4768 19.7984 19.6001C21.0467 20.4401 21.7467 21.5135 21.8634 22.6101Z" stroke="black" stroke-linecap="round" stroke-linejoin="round"/>
<path d="M13.9997 25.6666C20.4429 25.6666 25.6663 20.4432 25.6663 14C25.6663 7.55665 20.4429 2.33331 13.9997 2.33331C7.55635 2.33331 2.33301 7.55665 2.33301 14C2.33301 20.4432 7.55635 25.6666 13.9997 25.6666Z" stroke="black" stroke-linecap="round" stroke-linejoin="round"/>
</svg>
