<svg width="62" height="51" viewBox="0 0 62 51" fill="none" xmlns="http://www.w3.org/2000/svg">
<path d="M35.2358 48.1929L35.2358 39.1414C35.2358 37.9132 36.3553 36.9185 37.7354 36.9185C42.6603 36.9185 45.3395 32.4267 45.7113 23.5598L37.7354 23.5598C36.3554 23.5598 35.2358 22.5637 35.2358 21.3369L35.2358 2.2243C35.2358 0.996609 36.3553 0.00187113 37.7354 0.00187137L59.0003 0.00187509C60.3801 0.00187533 61.5 0.997702 61.5 2.2243L61.5 21.3371C61.5 25.5872 61.0175 29.4874 60.0704 32.9319C59.0974 36.463 57.6039 39.5501 55.6322 42.1083C53.6044 44.7373 51.0657 46.8003 48.091 48.237C45.0938 49.6829 41.6097 50.4167 37.7344 50.4167C36.3554 50.4157 35.2358 49.4201 35.2358 48.1929ZM2.99904 36.9177C1.61907 36.9177 0.499993 37.9132 0.499993 39.1396L0.499992 48.193C0.499991 49.4201 1.61906 50.415 2.99903 50.415C6.87246 50.415 10.3583 49.681 13.3536 48.2353C16.3299 46.7987 18.8682 44.7374 20.8958 42.1066C22.8687 39.5484 24.3621 36.4611 25.3351 32.9283C26.2827 29.4838 26.7642 25.5835 26.7642 21.3352L26.7642 2.22243C26.7642 0.994743 25.644 4.39632e-06 24.2646 4.15513e-06L2.99904 4.36947e-07C1.61907 1.95665e-07 0.5 0.995671 0.5 2.22243L0.499996 21.3352C0.499996 22.5627 1.61907 23.5581 2.99904 23.5581L10.863 23.5581C10.4956 32.4257 7.85505 36.9177 2.99904 36.9177Z" fill="#191720"/>
</svg>
