<svg width="48" height="16" viewBox="0 0 48 16" fill="none" xmlns="http://www.w3.org/2000/svg">
<g clip-path="url(#clip0_448_331)">
<path d="M47.9703 3.80607C47.3176 0.0583934 36.0571 -1.11114 22.8183 1.19374C17.2585 2.16222 12.2382 3.59067 8.32867 5.19771C8.92922 5.21086 9.37461 5.34856 9.64524 5.61847C9.85682 5.83029 9.96368 6.121 9.96368 6.48319V6.85495H8.66552V6.5267C8.66552 6.25321 8.50152 6.08371 8.21105 6.08371C7.96696 6.08371 7.81658 6.19392 7.76805 6.41099C7.75179 6.49681 7.75358 6.58507 7.77331 6.67015C7.91221 7.23794 9.83984 7.59057 10.0495 8.63842C10.077 8.77326 10.1143 9.06182 10.0555 9.47469C9.93523 10.3198 9.19268 10.6459 8.24739 10.6459C6.92795 10.6459 6.39196 10.021 6.39196 9.15936L6.39291 8.75174H7.78455L7.78526 9.25953C7.78526 9.54498 7.99278 9.70253 8.27536 9.70253C8.54312 9.70253 8.69947 9.59471 8.7535 9.37428C8.77861 9.27292 8.7896 9.1235 8.74394 9.00922C8.48646 8.36325 6.68649 8.06154 6.46487 7.01704C6.41539 6.78227 6.41132 6.58241 6.45244 6.32971C6.47354 6.20445 6.51234 6.08282 6.56767 5.96847C2.23116 7.99651 -0.305623 10.228 0.0295548 12.1547C0.682936 15.9028 11.9432 17.0712 25.1818 14.7663C31.0012 13.7533 36.2331 12.2369 40.2148 10.5376C40.1572 10.5405 40.1012 10.5467 40.0415 10.5467C39.1354 10.5467 38.3264 10.2072 38.2425 9.28104C38.2276 9.1125 38.225 9.04197 38.2245 8.94587L38.225 6.8167C38.225 6.72489 38.2358 6.56376 38.246 6.48056C38.3534 5.58548 39.061 5.21635 40.0419 5.21635C40.801 5.21635 41.7317 5.43415 41.834 6.48128C41.8477 6.61277 41.8462 6.7531 41.846 6.79925V7.0003H40.5349V6.70027C40.5349 6.69381 40.533 6.58169 40.5187 6.51164C40.4971 6.40478 40.4061 6.1571 40.0326 6.1571C39.6637 6.1571 39.5681 6.40526 39.5442 6.51188C39.5306 6.57045 39.5241 6.65461 39.5241 6.74784V9.06182C39.5229 9.14214 39.527 9.20502 39.5351 9.25116C39.5416 9.2875 39.6078 9.60642 40.0372 9.60642C40.4634 9.60642 40.5294 9.2875 40.5354 9.25116C40.5466 9.18852 40.5481 9.11393 40.5476 9.06182V8.34484H40.0317V7.57264H41.856V8.94634C41.8555 9.03982 41.8541 9.10891 41.8383 9.28104C41.8163 9.52394 41.7398 9.72954 41.6198 9.90526C45.8425 7.90017 48.3011 5.70478 47.9703 3.80607ZM13.6425 10.4482L12.9784 5.93548H12.9545L12.2733 10.4482H10.8736L11.815 5.35191H14.0989L15.0346 10.4482H13.6425ZM20.3752 10.4482L20.3444 6.02274H20.3219L19.4983 10.4482H18.1846L17.3651 6.02274H17.3417L17.3118 10.4482H16.01L16.1229 5.35191H18.2167L18.8263 9.1376H18.8562L19.4675 5.35191H21.5603L21.6727 10.4482H20.3752ZM26.5053 9.46059C26.3652 10.4477 25.3981 10.6203 24.7146 10.6203C23.5797 10.6203 22.8778 10.1352 22.8778 9.14812L22.8785 8.74552H24.2534L24.2544 9.2471C24.2544 9.5194 24.4464 9.68603 24.7428 9.68603C25.0072 9.68603 25.1622 9.57988 25.2159 9.36185C25.2408 9.26025 25.2511 9.11202 25.2071 9.00014C24.9537 8.36636 23.1678 8.0558 22.9507 7.02756C22.901 6.79446 22.8974 6.59651 22.9383 6.34644C23.0894 5.41431 23.984 5.22066 24.7041 5.22066C25.3482 5.22066 25.817 5.36123 26.0981 5.64238C26.3078 5.85228 26.4139 6.14037 26.4139 6.49873V6.86642H25.1282V6.542C25.1282 6.2642 24.9558 6.10355 24.6788 6.10355C24.433 6.10355 24.2843 6.2128 24.2355 6.42773C24.2197 6.51266 24.2218 6.59995 24.2417 6.68401C24.3794 7.24918 26.2901 7.59464 26.4993 8.63268C26.5263 8.76513 26.5634 9.04938 26.5053 9.46059ZM31.2671 8.99751C31.269 9.09313 31.2597 9.28415 31.2544 9.33316C31.176 10.1728 30.5754 10.5995 29.474 10.5995C28.3683 10.5995 27.7673 10.1728 27.6894 9.33316C27.6805 9.22182 27.6763 9.11016 27.6767 8.99846V5.35071H28.9921V9.11346C28.9906 9.19761 28.9949 9.25977 29.0033 9.30304C29.0196 9.38671 29.1028 9.6583 29.474 9.6583C29.8441 9.6583 29.9273 9.38647 29.9448 9.304C29.9522 9.25953 29.9567 9.19426 29.9567 9.11322V5.35071H31.2671V8.99751ZM36.9343 10.3963H35.1039L33.8753 6.35959H33.8548L33.9229 10.3963H32.6472V5.35191H34.5543L35.6899 9.22964H35.7164L35.6493 5.35191H36.9343V10.3963Z" fill="white"/>
</g>
<defs>
<clipPath id="clip0_448_331">
<rect width="48" height="15.96" fill="white"/>
</clipPath>
</defs>
</svg>
