<svg width="40" height="40" viewBox="0 0 40 40" fill="none" xmlns="http://www.w3.org/2000/svg">
<path d="M8.09845 30.5994L8.09822 30.5992C7.22549 29.9485 6.42488 28.9207 5.84209 27.7591C5.25924 26.5974 4.91602 25.3452 4.91602 24.2667V11.8667C4.91602 9.50748 6.67085 6.96189 8.89051 6.13525L8.89147 6.13489L17.2077 3.01838C17.2078 3.01835 17.2079 3.01832 17.208 3.01829C17.9615 2.73673 18.9609 2.58752 19.9827 2.58752C21.0044 2.58752 22.0039 2.73673 22.7574 3.01829C22.7575 3.01832 22.7576 3.01835 22.7576 3.01838L31.0739 6.1349L31.0749 6.13525C33.2945 6.96189 35.0493 9.50748 35.0493 11.8667V24.25C35.0493 25.3372 34.706 26.5893 34.1234 27.7484C33.5409 28.9074 32.7404 29.9314 31.8671 30.5825L31.8669 30.5827L24.7002 35.9327L24.7002 35.9326L24.694 35.9374C23.4113 36.9265 21.7234 37.4334 19.9993 37.4334C18.2767 37.4334 16.5845 36.9271 15.2642 35.9487C15.2641 35.9486 15.2639 35.9484 15.2637 35.9483L8.09845 30.5994ZM17.7412 4.43157L17.7406 4.43182L9.42389 7.54849L9.42318 7.54875C8.5956 7.86031 7.85437 8.5226 7.32345 9.29073C6.79236 10.0591 6.43268 10.9899 6.43268 11.8834V24.2667C6.43268 25.1612 6.74327 26.1893 7.20027 27.1011C7.65715 28.0127 8.29264 28.8723 9.0002 29.4007L9.00024 29.4007L16.1666 34.7504C17.2286 35.5446 18.6276 35.925 20.0014 35.925C21.3754 35.925 22.7776 35.5446 23.8471 34.7517L23.8485 34.7507L31.0151 29.4007L31.016 29.4C31.7308 28.864 32.3662 28.0051 32.8216 27.0945C33.2769 26.1838 33.5827 25.1601 33.5827 24.2667V11.8667C33.5827 10.9805 33.2223 10.0539 32.6919 9.28657C32.1614 8.51902 31.4216 7.85409 30.597 7.53392L30.597 7.53389L30.5915 7.53182L22.2748 4.41515L22.2748 4.41507L22.2658 4.41186C21.6276 4.18663 20.7995 4.08326 20.0001 4.08544C19.2014 4.08762 18.3745 4.19526 17.7412 4.43157Z" fill="#FAFAFA" stroke="#FAFAFA"/>
<path d="M17.4135 21.0536L17.7671 21.4071L18.1206 21.0536L24.4039 14.7703C24.692 14.4822 25.1754 14.4822 25.4635 14.7703C25.7516 15.0583 25.7516 15.5417 25.4635 15.8298L18.2968 22.9965C18.1455 23.1478 17.9583 23.2167 17.7671 23.2167C17.5758 23.2167 17.3886 23.1478 17.2373 22.9965L14.5539 20.3131C14.2659 20.0251 14.2659 19.5417 14.5539 19.2536C14.842 18.9655 15.3254 18.9655 15.6135 19.2536L17.4135 21.0536Z" fill="#FAFAFA" stroke="#FAFAFA"/>
</svg>
