<svg width="247" height="261" viewBox="0 0 247 261" fill="none" xmlns="http://www.w3.org/2000/svg">
<g clip-path="url(#clip0_17_196)">
<path d="M162.996 63.3173C160.076 70.8724 152.412 76.7427 148.413 78.7447C150.776 71.4114 151.795 63.1448 152.196 56.1287C152.196 56.1287 159.635 46.7103 162.836 51.5673C163.335 52.325 163.726 53.4215 163.976 54.9522C164.45 57.8843 164.009 60.7024 162.996 63.3173Z" fill="white"/>
<path d="M96.2389 77.6513C91.9232 76.0683 84.6564 69.4279 81.9179 62.304C80.7689 59.3134 80.4177 56.2365 81.4188 53.4122C81.6838 52.6669 81.9764 52.0602 82.2906 51.5704C86.0087 45.774 92.8227 56.6154 92.8227 56.6154C93.2201 63.1787 94.1658 70.7677 96.2389 77.6513Z" fill="white"/>
<path d="M152.417 46.7688C152.359 39.8574 149.287 33.2632 143.909 28.9205C137.665 23.8787 131.843 24.4608 131.843 24.4608C131.843 24.4608 126.701 24.1528 123.313 24.7688C122.657 24.8889 121.871 24.9505 121.033 24.9721C117.553 25.0614 113.147 24.4608 113.147 24.4608C113.147 24.4608 107.322 23.8787 101.081 28.9205C95.6998 33.2632 92.6317 39.8574 92.5731 46.7688C92.5485 49.5099 92.5978 52.8978 92.8227 56.6153C93.22 63.1787 94.1657 70.7676 96.2389 77.6513C98.0379 83.6449 100.69 89.0994 104.568 92.8723H104.572C105.286 93.5746 106.044 94.2121 106.848 94.7881C107.365 95.1577 107.871 95.5396 108.36 95.94C110.461 97.6524 116.595 102.201 122.447 102.251H122.543C128.396 102.201 134.529 97.6524 136.63 95.94C137.12 95.5396 137.625 95.1577 138.142 94.7881C140.163 93.3405 141.904 91.4802 143.404 89.3273C143.407 89.3243 143.407 89.3212 143.407 89.3212C145.526 86.2782 147.159 82.6408 148.413 78.7447C150.775 71.4113 151.795 63.1448 152.195 56.1287C152.396 52.5991 152.439 49.3898 152.417 46.7688ZM107.295 68.1959C104.913 68.1959 102.982 62.267 102.982 54.9522C102.982 47.6373 104.913 41.7084 107.295 41.7084C109.676 41.7084 111.607 47.6373 111.607 54.9522C111.607 62.267 109.676 68.1959 107.295 68.1959ZM138.099 68.1959C135.718 68.1959 133.787 62.267 133.787 54.9522C133.787 47.6373 135.718 41.7084 138.099 41.7084C140.48 41.7084 142.412 47.6373 142.412 54.9522C142.412 62.267 140.48 68.1959 138.099 68.1959Z" fill="white"/>
<path d="M212.184 156.59H62.0121C60.3117 156.59 58.9316 158.031 58.9316 159.812V257.624C58.9316 258.382 59.1812 259.075 59.6001 259.626C60.1638 260.369 61.0356 260.846 62.0121 260.846H212.184C213.885 260.846 215.265 259.405 215.265 257.624V159.812C215.265 158.031 213.885 156.59 212.184 156.59ZM138.099 218.497C130.953 218.497 125.161 212.707 125.161 205.561C125.161 198.416 130.953 192.625 138.099 192.625C145.246 192.625 151.037 198.416 151.037 205.561C151.037 212.707 145.246 218.497 138.099 218.497Z" fill="#BABABA"/>
<path d="M121.034 24.9721C117.553 25.0614 113.148 24.4608 113.148 24.4608C113.148 24.4608 107.322 23.8787 101.081 28.9206C95.6999 33.2633 92.6318 39.8574 92.5733 46.7688C92.5486 49.51 92.5979 52.8979 92.8228 56.6154C92.8228 56.6154 86.0088 45.774 82.2907 51.5704C82.2907 51.5704 77.4144 16.453 102.982 4.44124C102.982 4.44124 107.594 2.32225 111.663 3.07991C113.992 3.5111 116.145 4.88783 117.152 8.13717C119.925 17.069 116.903 19.0124 121.034 24.9721Z" fill="#17253F"/>
<path d="M162.836 51.5674C159.635 46.7103 152.196 56.1288 152.196 56.1288C152.396 52.5991 152.439 49.3899 152.417 46.7688C152.359 39.8574 149.288 33.2633 143.909 28.9206C137.665 23.8787 131.843 24.4608 131.843 24.4608C131.843 24.4608 126.702 24.1528 123.313 24.7688C122.657 24.889 121.872 24.9506 121.034 24.9721C116.903 19.0124 119.925 17.069 117.152 8.13718C116.145 4.88784 113.992 3.51111 111.663 3.07992C113.801 3.15692 116.096 2.56865 118.021 1.8695C123.929 -0.274132 130.401 -0.471248 136.322 1.64159C162.312 10.906 162.829 51.1023 162.836 51.5674Z" fill="#17253F"/>
<path d="M59.5999 259.626L52.8352 251.6L51.8032 250.377C50.722 249.096 51.6338 247.14 53.3065 247.14H58.9314V257.624C58.9314 258.382 59.1809 259.075 59.5999 259.626Z" fill="#17253F"/>
<path d="M59.6868 259.731L59.6006 259.626" stroke="black" stroke-miterlimit="10"/>
<path d="M111.663 156.59H72.7693C75.514 151.354 72.4859 138.419 70.0216 121.171C69.6057 118.254 69.6704 114.638 70.0678 110.647C72.0054 91.0368 81.9183 62.3041 81.9183 62.3041C84.6568 69.428 91.9236 76.0683 96.2393 77.6514C98.0383 83.645 100.691 89.0995 104.569 92.8725H104.572C104.686 93.0911 110.126 103.409 112.914 118.405C114.944 129.345 115.56 142.774 111.663 156.59Z" fill="#17253F"/>
<path d="M169.52 156.59H133.02C131.455 145.841 133.845 129.709 136.726 115.935C139.751 101.493 143.309 89.6478 143.404 89.3275C143.407 89.3244 143.407 89.3213 143.407 89.3213C145.526 86.2783 147.159 82.6409 148.413 78.7448C152.411 76.7428 160.075 70.8725 162.996 63.3174C162.996 63.3174 168.448 85.1449 171.005 109.449C172.752 126.065 173.146 143.836 169.52 156.59Z" fill="#17253F"/>
<path d="M133.02 156.59H111.663C115.56 142.774 114.944 129.345 112.914 118.405L122.494 124.731L136.726 115.935C133.845 129.708 131.455 145.841 133.02 156.59Z" fill="#3AB795"/>
<path d="M143.403 89.3274C143.308 89.6477 139.75 101.493 136.725 115.935L122.493 124.731L112.913 118.405C110.125 103.409 104.685 93.0911 104.571 92.8755C105.286 93.5746 106.044 94.2122 106.848 94.7881C107.365 95.1577 107.87 95.5396 108.36 95.94C110.461 97.6525 116.594 102.202 122.447 102.251H122.543C128.396 102.202 134.529 97.6525 136.63 95.94C137.119 95.5396 137.625 95.1577 138.142 94.7881C140.163 93.3406 141.903 91.4803 143.403 89.3274Z" fill="white"/>
<path d="M28.7432 216.033C28.7432 216.033 41.3545 217.068 50.4634 218.814" stroke="black" stroke-miterlimit="10"/>
<path d="M60.7803 146.426C60.7803 146.426 62.3205 152.586 62.0125 156.59" stroke="black" stroke-miterlimit="10"/>
<path d="M184.306 146.426C184.306 146.426 182.683 154.742 182.88 156.59" stroke="black" stroke-miterlimit="10"/>
<path d="M215.265 216.212C215.265 216.212 220.039 216.03 222.504 216.338" stroke="black" stroke-miterlimit="10"/>
<path d="M221.888 220.037C221.888 220.037 233.285 222.501 234.826 225.273" stroke="black" stroke-miterlimit="10"/>
<path d="M243.45 248.988C238.83 256.38 215.264 252.182 215.264 252.182V159.812C215.264 158.032 213.884 156.59 212.184 156.59H169.52C173.145 143.836 172.751 126.065 171.004 109.449C202.369 109.427 217.575 164.598 224.044 176.61C230.513 188.621 248.071 241.596 243.45 248.988Z" fill="#3AB795"/>
<path d="M24.7383 210.797C24.7383 210.797 30.8992 212.337 33.0555 214.801" stroke="black" stroke-miterlimit="10"/>
<path d="M138.099 218.497C145.244 218.497 151.037 212.705 151.037 205.561C151.037 198.417 145.244 192.625 138.099 192.625C130.954 192.625 125.161 198.417 125.161 205.561C125.161 212.705 130.954 218.497 138.099 218.497Z" fill="white"/>
<path d="M72.7691 156.59H62.0122C60.3117 156.59 58.9317 158.032 58.9317 159.812V195.25C57.9121 199.235 53.7627 214.872 50.4635 218.814C54.3264 219.556 57.5578 220.422 58.9317 221.395V247.14H53.3068C51.6341 247.14 50.7223 249.096 51.8035 250.377L52.8355 251.6C46.6222 251.372 32.677 251.129 22.8904 252.992C9.95248 255.456 -2.67737 252.992 0.711125 239.748C4.09962 226.505 1.94331 219.421 8.7203 205.869C14.5978 194.116 37.3901 144.138 43.3354 131.079C44.7 128.082 46.5113 125.304 48.7446 122.886C52.8232 118.47 59.9914 112.485 70.0645 110.647H70.0675C69.6702 114.638 69.6055 118.254 70.0213 121.171C72.4857 138.419 75.5138 151.354 72.7691 156.59Z" fill="#3AB795"/>
<path d="M240.059 53.4122H205.022C204.945 49.0357 206.467 45.4999 208.516 42.7341C212.523 37.3227 218.546 34.8649 218.546 34.8649C218.546 34.8649 218.807 37.0917 222.504 37.0917H222.578C226.274 37.0917 226.536 34.8649 226.536 34.8649C226.536 34.8649 232.559 37.3227 236.566 42.7341C238.615 45.4999 240.136 49.0357 240.059 53.4122Z" fill="#3AB795"/>
<path d="M216.128 26.0808C216.02 26.05 213.83 25.4371 213.112 23.9095C212.899 23.4567 212.816 22.927 212.955 22.3048C213.044 21.9106 213.161 21.6088 213.303 21.3808C214.116 20.0565 215.632 21.27 215.724 21.347C215.82 22.4219 215.927 23.7709 216.035 25.3848C216.051 25.6219 216.081 25.856 216.128 26.0808Z" fill="white"/>
<path d="M218.546 29.8785V34.8649C218.546 34.8649 212.523 37.3227 208.516 42.7341C212.699 34.8279 213.112 23.9095 213.112 23.9095C213.829 25.4372 216.02 26.0501 216.127 26.0809C216.445 27.6517 217.437 28.9144 218.546 29.8785Z" fill="#17253F"/>
<path d="M231.97 23.9096C231.252 25.4372 229.062 26.0501 228.954 26.0809C229 25.8561 229.031 25.622 229.047 25.3849C229.154 23.771 229.262 22.422 229.358 21.3501C229.45 21.2731 230.892 20.1151 231.72 21.2885C231.884 21.5226 232.025 21.8522 232.127 22.3049C232.266 22.9271 232.182 23.4568 231.97 23.9096Z" fill="white"/>
<path d="M236.566 42.7341C232.558 37.3227 226.536 34.8649 226.536 34.8649V29.8785C227.645 28.9144 228.637 27.6517 228.954 26.0809C229.062 26.0501 231.252 25.4372 231.97 23.9095C231.97 23.9095 232.383 34.8279 236.566 42.7341Z" fill="#17253F"/>
<path d="M226.537 29.8784V34.8648C226.537 34.8648 226.275 37.0916 222.578 37.0916H222.504C218.808 37.0916 218.546 34.8648 218.546 34.8648V29.8784C220.366 31.4584 222.504 32.2315 222.504 32.2315H222.578C222.578 32.2315 224.716 31.4584 226.537 29.8784Z" fill="white"/>
<path d="M228.572 16.6162C227.457 15.2148 225.578 13.6564 223.347 15.0331C223.126 15.2056 222.925 15.3442 222.775 15.4458C222.768 15.4489 222.762 15.452 222.756 15.4581C222.599 15.5598 222.503 15.6152 222.503 15.6152C219.937 13.3022 217.747 15.0577 216.509 16.6162C215.797 17.5094 215.465 18.6428 215.579 19.7793C215.622 20.2105 215.671 20.731 215.723 21.347C215.819 22.4219 215.927 23.7709 216.034 25.3848C216.05 25.6219 216.081 25.856 216.127 26.0808C216.444 27.6516 217.436 28.9144 218.545 29.8784C220.366 31.4584 222.503 32.2315 222.503 32.2315H222.577C222.577 32.2315 224.715 31.4584 226.536 29.8784C227.645 28.9144 228.637 27.6516 228.954 26.0808C229 25.856 229.031 25.6219 229.046 25.3848C229.154 23.7709 229.262 22.4219 229.357 21.35C229.41 20.734 229.459 20.2105 229.502 19.7793C229.616 18.6428 229.28 17.5094 228.572 16.6162ZM218.961 24.4608C218.366 24.4608 217.883 23.081 217.883 21.3808C217.883 19.6807 218.366 18.3009 218.961 18.3009C219.555 18.3009 220.039 19.6807 220.039 21.3808C220.039 23.081 219.555 24.4608 218.961 24.4608ZM226.12 24.4608C225.525 24.4608 225.042 23.081 225.042 21.3808C225.042 19.6807 225.525 18.3009 226.12 18.3009C226.714 18.3009 227.198 19.6807 227.198 21.3808C227.198 23.081 226.714 24.4608 226.12 24.4608Z" fill="white"/>
<path d="M218.961 24.4608C219.556 24.4608 220.039 23.0818 220.039 21.3808C220.039 19.6798 219.556 18.3009 218.961 18.3009C218.366 18.3009 217.883 19.6798 217.883 21.3808C217.883 23.0818 218.366 24.4608 218.961 24.4608Z" fill="black"/>
<path d="M226.12 24.4608C226.716 24.4608 227.198 23.0818 227.198 21.3808C227.198 19.6798 226.716 18.3009 226.12 18.3009C225.525 18.3009 225.042 19.6798 225.042 21.3808C225.042 23.0818 225.525 24.4608 226.12 24.4608Z" fill="black"/>
<path d="M223.348 15.0331C223.16 15.1471 222.969 15.2857 222.775 15.4458C222.769 15.4489 222.763 15.452 222.757 15.4582C222.6 15.5598 222.504 15.6152 222.504 15.6152C219.938 13.3022 217.748 15.0578 216.51 16.6162C215.798 17.5094 215.465 18.6428 215.579 19.7793C215.622 20.2105 215.672 20.731 215.724 21.347C215.632 21.27 214.116 20.0565 213.303 21.3809C213.303 21.3809 212.647 16.453 214.803 13.681C216.959 10.9091 220.656 7.82916 224.044 10.2931C224.805 10.8475 225.147 11.4234 225.218 11.9778C225.378 13.216 224.205 14.3709 223.348 15.0331Z" fill="#17253F"/>
<path d="M231.72 21.2885C230.892 20.115 229.45 21.2731 229.358 21.3501C229.41 20.7341 229.459 20.2105 229.502 19.7793C229.616 18.6428 229.281 17.5094 228.572 16.6162C227.457 15.2149 225.578 13.6564 223.348 15.0332C224.204 14.371 225.378 13.216 225.217 11.9779C225.217 11.9779 232.309 8.87944 231.72 21.2885Z" fill="#17253F"/>
<path d="M198.322 4.59521V53.2582H205.127C205.05 48.8816 206.562 45.3459 208.599 42.5801C212.754 34.6739 213.167 23.7555 213.167 23.7555C212.954 23.3027 212.874 22.773 213.01 22.1509C213.099 21.7566 213.216 21.4548 213.355 21.2269C213.355 21.2269 212.702 16.299 214.846 13.527C216.99 10.7551 220.662 7.67515 224.029 10.1391C224.783 10.6935 225.125 11.2694 225.196 11.8238C225.196 11.8238 232.241 8.72541 231.659 21.1345C231.822 21.3686 231.961 21.6981 232.062 22.1509C232.201 22.773 232.118 23.3027 231.905 23.7555C231.905 23.7555 232.315 34.6739 236.474 42.5801C238.51 45.3459 240.022 48.8816 239.945 53.2582H246.688V4.59521H198.325H198.322Z" fill="#A0E8AF"/>
<path d="M222.775 15.4459C222.926 15.3443 223.126 15.2057 223.348 15.0332C223.16 15.1471 222.969 15.2857 222.775 15.4459ZM222.775 15.4459C222.926 15.3443 223.126 15.2057 223.348 15.0332C223.16 15.1471 222.969 15.2857 222.775 15.4459ZM222.775 15.4459C222.926 15.3443 223.126 15.2057 223.348 15.0332C223.16 15.1471 222.969 15.2857 222.775 15.4459ZM222.775 15.4459C222.926 15.3443 223.126 15.2057 223.348 15.0332C223.16 15.1471 222.969 15.2857 222.775 15.4459ZM222.775 15.4459C222.926 15.3443 223.126 15.2057 223.348 15.0332C223.16 15.1471 222.969 15.2857 222.775 15.4459ZM222.775 15.4459C222.926 15.3443 223.126 15.2057 223.348 15.0332C223.16 15.1471 222.969 15.2857 222.775 15.4459ZM222.775 15.4459C222.926 15.3443 223.126 15.2057 223.348 15.0332C223.16 15.1471 222.969 15.2857 222.775 15.4459ZM222.775 15.4459C222.926 15.3443 223.126 15.2057 223.348 15.0332C223.16 15.1471 222.969 15.2857 222.775 15.4459ZM198.175 4.74927V53.4123H205.023C204.946 49.0357 206.467 45.4999 208.516 42.7341C212.699 34.8279 213.112 23.9096 213.112 23.9096C212.899 23.4568 212.816 22.9271 212.955 22.3049C213.044 21.9107 213.161 21.6088 213.303 21.3809C213.303 21.3809 212.647 16.453 214.803 13.6811C216.959 10.9091 220.656 7.8292 224.044 10.2932C224.805 10.8475 225.147 11.4235 225.218 11.9779C225.218 11.9779 232.309 8.87946 231.721 21.2885C231.884 21.5226 232.026 21.8522 232.128 22.3049C232.266 22.9271 232.183 23.4568 231.97 23.9096C231.97 23.9096 232.383 34.8279 236.566 42.7341C238.615 45.4999 240.137 49.0357 240.06 53.4123H246.846V4.74927H198.175ZM223.348 15.0332C223.16 15.1471 222.969 15.2857 222.775 15.4459C222.926 15.3443 223.126 15.2057 223.348 15.0332ZM222.775 15.4459C222.926 15.3443 223.126 15.2057 223.348 15.0332C223.16 15.1471 222.969 15.2857 222.775 15.4459ZM222.775 15.4459C222.926 15.3443 223.126 15.2057 223.348 15.0332C223.16 15.1471 222.969 15.2857 222.775 15.4459ZM222.775 15.4459C222.926 15.3443 223.126 15.2057 223.348 15.0332C223.16 15.1471 222.969 15.2857 222.775 15.4459ZM222.775 15.4459C222.926 15.3443 223.126 15.2057 223.348 15.0332C223.16 15.1471 222.969 15.2857 222.775 15.4459ZM222.775 15.4459C222.926 15.3443 223.126 15.2057 223.348 15.0332C223.16 15.1471 222.969 15.2857 222.775 15.4459ZM222.775 15.4459C222.926 15.3443 223.126 15.2057 223.348 15.0332C223.16 15.1471 222.969 15.2857 222.775 15.4459ZM222.775 15.4459C222.926 15.3443 223.126 15.2057 223.348 15.0332C223.16 15.1471 222.969 15.2857 222.775 15.4459ZM222.775 15.4459C222.926 15.3443 223.126 15.2057 223.348 15.0332C223.16 15.1471 222.969 15.2857 222.775 15.4459Z" stroke="black" stroke-linecap="round" stroke-linejoin="round"/>
<path d="M240.059 53.4122H205.022C204.945 49.0357 206.467 45.4999 208.516 42.7341C212.523 37.3227 218.546 34.8649 218.546 34.8649C218.546 34.8649 218.807 37.0917 222.504 37.0917H222.578C226.274 37.0917 226.536 34.8649 226.536 34.8649C226.536 34.8649 232.559 37.3227 236.566 42.7341C238.615 45.4999 240.136 49.0357 240.059 53.4122Z" stroke="black" stroke-linecap="round" stroke-linejoin="round"/>
<path d="M216.128 26.081C216.02 26.0502 213.83 25.4372 213.112 23.9096C212.899 23.4568 212.816 22.9271 212.955 22.3049C213.044 21.9107 213.161 21.6089 213.303 21.381C214.116 20.0566 215.632 21.2701 215.724 21.3471C215.82 22.422 215.927 23.771 216.035 25.3849C216.051 25.622 216.081 25.8561 216.128 26.081Z" stroke="black" stroke-linecap="round" stroke-linejoin="round"/>
<path d="M216.132 26.0809H216.128" stroke="black" stroke-linecap="round" stroke-linejoin="round"/>
<path d="M215.729 21.3501H215.725" stroke="black" stroke-linecap="round" stroke-linejoin="round"/>
<path d="M218.546 29.8785V34.8649C218.546 34.8649 212.523 37.3227 208.516 42.7341C212.699 34.8279 213.112 23.9095 213.112 23.9095C213.829 25.4372 216.02 26.0501 216.127 26.0809C216.445 27.6517 217.437 28.9144 218.546 29.8785Z" stroke="black" stroke-linecap="round" stroke-linejoin="round"/>
<path d="M216.959 18.609C216.959 18.609 218.499 15.8371 220.347 17.685" stroke="black" stroke-linecap="round" stroke-linejoin="round"/>
<path d="M222.757 15.4583C222.698 15.5106 222.637 15.5599 222.578 15.6153" stroke="black" stroke-linecap="round" stroke-linejoin="round"/>
<path d="M231.971 23.9096C231.253 25.4372 229.063 26.0501 228.955 26.0809C229.001 25.8561 229.032 25.622 229.047 25.3849C229.155 23.771 229.263 22.422 229.359 21.3501C229.451 21.2731 230.893 20.1151 231.721 21.2885C231.885 21.5226 232.026 21.8522 232.128 22.3049C232.267 22.9271 232.183 23.4568 231.971 23.9096Z" stroke="black" stroke-linecap="round" stroke-linejoin="round"/>
<path d="M228.955 26.0809H228.951" stroke="black" stroke-linecap="round" stroke-linejoin="round"/>
<path d="M229.36 21.3501H229.355" stroke="black" stroke-linecap="round" stroke-linejoin="round"/>
<path d="M236.566 42.7341C232.558 37.3227 226.536 34.8649 226.536 34.8649V29.8785C227.645 28.9144 228.637 27.6517 228.954 26.0809C229.062 26.0501 231.252 25.4372 231.97 23.9095C231.97 23.9095 232.383 34.8279 236.566 42.7341Z" stroke="black" stroke-linecap="round" stroke-linejoin="round"/>
<path d="M225.011 27.8488C225.011 27.8488 224.395 29.0807 222.547 29.0807H222.473C220.625 29.0807 220.009 27.8488 220.009 27.8488" stroke="black" stroke-linecap="round" stroke-linejoin="round"/>
<path d="M228.123 18.609C228.123 18.609 226.583 15.8371 224.734 17.685" stroke="black" stroke-linecap="round" stroke-linejoin="round"/>
<path d="M223.111 24.6149L222.526 24.8982H222.498L221.913 24.6149" stroke="black" stroke-linecap="round" stroke-linejoin="round"/>
<path d="M226.537 29.8784V34.8648C226.537 34.8648 226.275 37.0916 222.578 37.0916H222.504C218.808 37.0916 218.546 34.8648 218.546 34.8648V29.8784C220.366 31.4584 222.504 32.2315 222.504 32.2315H222.578C222.578 32.2315 224.716 31.4584 226.537 29.8784Z" stroke="black" stroke-linecap="round" stroke-linejoin="round"/>
<path d="M228.573 16.6163C227.458 15.2149 225.579 13.6565 223.348 15.0332C223.127 15.2057 222.926 15.3443 222.776 15.4459C222.769 15.449 222.763 15.4521 222.757 15.4582C222.6 15.5599 222.504 15.6153 222.504 15.6153C219.938 13.3023 217.748 15.0578 216.51 16.6163C215.798 17.5095 215.466 18.6429 215.58 19.7794C215.623 20.2106 215.672 20.7311 215.724 21.3471C215.82 22.422 215.928 23.771 216.035 25.3849C216.051 25.622 216.082 25.8561 216.128 26.0809C216.445 27.6517 217.437 28.9145 218.546 29.8785C220.367 31.4585 222.504 32.2316 222.504 32.2316H222.578C222.578 32.2316 224.716 31.4585 226.537 29.8785C227.646 28.9145 228.638 27.6517 228.955 26.0809C229.001 25.8561 229.032 25.622 229.047 25.3849C229.155 23.771 229.263 22.422 229.358 21.3502C229.411 20.7342 229.46 20.2106 229.503 19.7794C229.617 18.6429 229.281 17.5095 228.573 16.6163ZM218.962 24.4609C218.367 24.4609 217.884 23.0811 217.884 21.381C217.884 19.6808 218.367 18.301 218.962 18.301C219.556 18.301 220.04 19.6808 220.04 21.381C220.04 23.0811 219.556 24.4609 218.962 24.4609ZM226.121 24.4609C225.526 24.4609 225.043 23.0811 225.043 21.381C225.043 19.6808 225.526 18.301 226.121 18.301C226.715 18.301 227.199 19.6808 227.199 21.381C227.199 23.0811 226.715 24.4609 226.121 24.4609Z" stroke="black" stroke-linecap="round" stroke-linejoin="round"/>
<path d="M218.962 24.4609C219.557 24.4609 220.04 23.082 220.04 21.381C220.04 19.68 219.557 18.301 218.962 18.301C218.366 18.301 217.884 19.68 217.884 21.381C217.884 23.082 218.366 24.4609 218.962 24.4609Z" stroke="black" stroke-linecap="round" stroke-linejoin="round"/>
<path d="M226.121 24.4609C226.717 24.4609 227.199 23.082 227.199 21.381C227.199 19.68 226.717 18.301 226.121 18.301C225.526 18.301 225.043 19.68 225.043 21.381C225.043 23.082 225.526 24.4609 226.121 24.4609Z" stroke="black" stroke-linecap="round" stroke-linejoin="round"/>
<path d="M223.348 15.0331C223.16 15.1471 222.969 15.2857 222.775 15.4458C222.769 15.4489 222.763 15.452 222.757 15.4582C222.6 15.5598 222.504 15.6152 222.504 15.6152C219.938 13.3022 217.748 15.0578 216.51 16.6162C215.798 17.5094 215.465 18.6428 215.579 19.7793C215.622 20.2105 215.672 20.731 215.724 21.347C215.632 21.27 214.116 20.0565 213.303 21.3809C213.303 21.3809 212.647 16.453 214.803 13.681C216.959 10.9091 220.656 7.82916 224.044 10.2931C224.805 10.8475 225.147 11.4234 225.218 11.9778C225.378 13.216 224.205 14.3709 223.348 15.0331Z" stroke="black" stroke-linecap="round" stroke-linejoin="round"/>
<path d="M231.721 21.2885C230.893 20.115 229.451 21.2731 229.359 21.3501C229.411 20.7341 229.46 20.2105 229.503 19.7793C229.617 18.6428 229.282 17.5094 228.573 16.6162C227.458 15.2149 225.579 13.6564 223.349 15.0332C224.205 14.371 225.379 13.216 225.218 11.9779C225.218 11.9779 232.31 8.87944 231.721 21.2885Z" stroke="black" stroke-linecap="round" stroke-linejoin="round"/>
<path d="M214.508 46.4331C214.508 46.4331 213.67 51.5643 213.929 53.4122" stroke="black" stroke-miterlimit="10"/>
<path d="M230.514 46.4331C230.514 46.4331 231.352 51.5643 231.093 53.4122" stroke="black" stroke-miterlimit="10"/>
<path d="M246.846 59.5721V108.235H240.06C240.291 95.2994 226.537 89.6878 226.537 89.6878V84.9231C227.408 84.2394 228.265 83.2969 228.899 82.0064H228.902C229.038 81.9386 233.277 79.8504 232.67 76.8198C232.599 76.4718 232.51 76.1946 232.405 75.9759C232.346 74.6392 230.818 74.2049 231.462 72.7112C232.118 71.1897 235.947 74.553 235.947 74.553C235.947 68.1282 230.806 71.9843 229.121 69.6743C227.439 67.3644 236.591 63.3081 236.591 63.3081C233.055 61.3801 224.057 68.1282 222.772 66.8408C221.485 65.5565 225.825 63.2989 225.825 63.2989C220.2 59.4335 216.987 68.7688 215.059 68.1282C213.13 67.4845 209.914 68.4485 211.264 69.0368C212.428 69.545 212.548 74.1526 212.557 75.3999C212.243 75.671 212.031 76.2007 212.031 77.1278C212.031 80.8237 216.254 81.7446 216.254 81.7446C216.855 83.069 217.686 84.0484 218.546 84.7629V89.6878C218.546 89.6878 204.792 95.2994 205.023 108.235H198.175V59.5721H246.846Z" fill="#A0E8AF"/>
<path d="M226.537 84.9232V89.6879C226.537 89.6879 226.275 91.9146 222.578 91.9146H222.504C218.808 91.9146 218.546 89.6879 218.546 89.6879V84.7661C220.462 86.3646 222.526 86.6818 222.526 86.6818H222.751C222.751 86.6818 224.679 86.3862 226.537 84.9232Z" fill="white"/>
<path d="M240.059 108.235H205.022C204.791 95.2994 218.546 89.6877 218.546 89.6877C218.546 89.6877 218.807 91.9145 222.504 91.9145H222.578C226.274 91.9145 226.536 89.6877 226.536 89.6877C226.536 89.6877 240.291 95.2994 240.059 108.235Z" fill="#3AB795"/>
<path d="M216.254 81.7446C216.254 81.7446 212.03 80.8237 212.03 77.1278C212.03 76.2007 212.243 75.671 212.557 75.3999C213.5 74.5837 215.382 76.059 215.382 76.059C215.222 78.4429 215.601 80.3001 216.254 81.7446Z" fill="white"/>
<path d="M228.902 82.0064C229.617 80.5557 230.051 78.6647 229.907 76.2038C229.907 76.2038 231.595 74.2665 232.405 75.9728C232.51 76.1945 232.599 76.4717 232.67 76.8198C233.277 79.8504 229.038 81.9386 228.902 82.0064Z" fill="white"/>
<path d="M229.907 76.2038C229.894 76.0036 229.879 75.7973 229.86 75.5879C229.86 75.5879 229.478 71.0018 222.738 71.0018H222.541C215.801 71.0018 215.419 75.5879 215.419 75.5879C215.404 75.748 215.392 75.9051 215.382 76.0591C215.222 78.443 215.601 80.3002 216.254 81.7447C216.855 83.069 217.687 84.0484 218.546 84.763C220.462 86.3646 222.526 86.6818 222.526 86.6818H222.751C222.751 86.6818 224.679 86.3861 226.537 84.9231C227.408 84.2394 228.265 83.2969 228.899 82.0064H228.902C229.617 80.5558 230.051 78.6647 229.907 76.2038ZM219.27 79.5918C218.675 79.5918 218.192 78.212 218.192 76.5118C218.192 74.8117 218.675 73.4319 219.27 73.4319C219.864 73.4319 220.348 74.8117 220.348 76.5118C220.348 78.212 219.864 79.5918 219.27 79.5918ZM225.739 79.2838C225.144 79.2838 224.661 77.904 224.661 76.2038C224.661 74.5037 225.144 73.1239 225.739 73.1239C226.333 73.1239 226.817 74.5037 226.817 76.2038C226.817 77.904 226.333 79.2838 225.739 79.2838Z" fill="white"/>
<path d="M219.27 79.5918C219.865 79.5918 220.348 78.2128 220.348 76.5118C220.348 74.8108 219.865 73.4319 219.27 73.4319C218.674 73.4319 218.191 74.8108 218.191 76.5118C218.191 78.2128 218.674 79.5918 219.27 79.5918Z" fill="black"/>
<path d="M225.738 79.2838C226.334 79.2838 226.816 77.9048 226.816 76.2038C226.816 74.5028 226.334 73.1239 225.738 73.1239C225.143 73.1239 224.66 74.5028 224.66 76.2038C224.66 77.9048 225.143 79.2838 225.738 79.2838Z" fill="black"/>
<path d="M231.462 72.7112C230.818 74.205 232.346 74.6392 232.405 75.9728C231.595 74.2666 229.907 76.2038 229.907 76.2038C229.894 76.0036 229.879 75.7973 229.86 75.5878C229.86 75.5878 229.478 71.0018 222.738 71.0018H222.541C215.801 71.0018 215.419 75.5878 215.419 75.5878C215.404 75.748 215.391 75.9051 215.382 76.0591C215.382 76.0591 213.5 74.5838 212.557 75.4C212.548 74.1526 212.428 69.545 211.264 69.0368C209.914 68.4485 213.13 67.4845 215.059 68.1282C216.987 68.7689 220.2 59.4336 225.825 63.2989C225.825 63.2989 221.485 65.5565 222.772 66.8408C224.057 68.1282 233.055 61.3801 236.591 63.3081C236.591 63.3081 227.439 67.3644 229.121 69.6744C230.806 71.9843 235.947 68.1282 235.947 74.553C235.947 74.553 232.118 71.1897 231.462 72.7112Z" fill="#17253F"/>
<path d="M226.537 84.9231V89.6877C226.537 89.6877 226.275 91.9145 222.578 91.9145H222.504C218.808 91.9145 218.546 89.6877 218.546 89.6877V84.766C220.462 86.3645 222.526 86.6817 222.526 86.6817H222.751C222.751 86.6817 224.679 86.386 226.537 84.9231Z" stroke="black" stroke-linecap="round" stroke-linejoin="round"/>
<path d="M240.059 108.235H205.022C204.791 95.2994 218.546 89.6877 218.546 89.6877C218.546 89.6877 218.807 91.9145 222.504 91.9145H222.578C226.274 91.9145 226.536 89.6877 226.536 89.6877C226.536 89.6877 240.291 95.2994 240.059 108.235Z" stroke="black" stroke-linecap="round" stroke-linejoin="round"/>
<path d="M216.254 81.7446C216.254 81.7446 212.03 80.8237 212.03 77.1278C212.03 76.2007 212.243 75.671 212.557 75.3999C213.5 74.5837 215.382 76.059 215.382 76.059C215.222 78.4429 215.601 80.3001 216.254 81.7446Z" stroke="black" stroke-linecap="round" stroke-linejoin="round"/>
<path d="M228.902 82.0064C229.617 80.5557 230.051 78.6647 229.907 76.2038C229.907 76.2038 231.595 74.2665 232.405 75.9728C232.51 76.1945 232.599 76.4717 232.67 76.8198C233.277 79.8504 229.038 81.9386 228.902 82.0064Z" stroke="black" stroke-linecap="round" stroke-linejoin="round"/>
<path d="M246.846 59.5721V108.235H240.06C240.291 95.2994 226.537 89.6878 226.537 89.6878V84.9231C227.408 84.2394 228.265 83.2969 228.899 82.0064H228.902C229.038 81.9386 233.277 79.8504 232.67 76.8198C232.599 76.4718 232.51 76.1946 232.405 75.9759C232.346 74.6392 230.818 74.2049 231.462 72.7112C232.118 71.1897 235.947 74.553 235.947 74.553C235.947 68.1282 230.806 71.9843 229.121 69.6743C227.439 67.3644 236.591 63.3081 236.591 63.3081C233.055 61.3801 224.057 68.1282 222.772 66.8408C221.485 65.5565 225.825 63.2989 225.825 63.2989C220.2 59.4335 216.987 68.7688 215.059 68.1282C213.13 67.4845 209.914 68.4485 211.264 69.0368C212.428 69.545 212.548 74.1526 212.557 75.3999C212.243 75.671 212.031 76.2007 212.031 77.1278C212.031 80.8237 216.254 81.7446 216.254 81.7446C216.855 83.069 217.686 84.0484 218.546 84.7629V89.6878C218.546 89.6878 204.792 95.2994 205.023 108.235H198.175V59.5721H246.846Z" stroke="black" stroke-linecap="round" stroke-linejoin="round"/>
<path d="M223.111 79.4377L222.526 79.7211H222.498L221.913 79.4377" stroke="black" stroke-linecap="round" stroke-linejoin="round"/>
<path d="M214.508 101.256C214.508 101.256 213.67 106.387 213.929 108.235" stroke="black" stroke-miterlimit="10"/>
<path d="M230.514 101.256C230.514 101.256 231.352 106.387 231.093 108.235" stroke="black" stroke-miterlimit="10"/>
<path d="M229.907 76.2038C229.894 76.0036 229.879 75.7973 229.86 75.5879C229.86 75.5879 229.478 71.0018 222.738 71.0018H222.541C215.801 71.0018 215.419 75.5879 215.419 75.5879C215.404 75.748 215.392 75.9051 215.382 76.0591C215.222 78.443 215.601 80.3002 216.254 81.7447C216.855 83.069 217.687 84.0484 218.546 84.763C220.462 86.3646 222.526 86.6818 222.526 86.6818H222.751C222.751 86.6818 224.679 86.3861 226.537 84.9231C227.408 84.2394 228.265 83.2969 228.899 82.0064H228.902C229.617 80.5558 230.051 78.6647 229.907 76.2038ZM219.27 79.5918C218.675 79.5918 218.192 78.212 218.192 76.5118C218.192 74.8117 218.675 73.4319 219.27 73.4319C219.864 73.4319 220.348 74.8117 220.348 76.5118C220.348 78.212 219.864 79.5918 219.27 79.5918ZM225.739 79.2838C225.144 79.2838 224.661 77.904 224.661 76.2038C224.661 74.5037 225.144 73.1239 225.739 73.1239C226.333 73.1239 226.817 74.5037 226.817 76.2038C226.817 77.904 226.333 79.2838 225.739 79.2838Z" stroke="black" stroke-linecap="round" stroke-linejoin="round"/>
<path d="M219.27 79.5918C219.865 79.5918 220.348 78.2128 220.348 76.5118C220.348 74.8108 219.865 73.4319 219.27 73.4319C218.674 73.4319 218.191 74.8108 218.191 76.5118C218.191 78.2128 218.674 79.5918 219.27 79.5918Z" stroke="black" stroke-linecap="round" stroke-linejoin="round"/>
<path d="M225.738 79.2838C226.334 79.2838 226.816 77.9048 226.816 76.2038C226.816 74.5028 226.334 73.1239 225.738 73.1239C225.143 73.1239 224.66 74.5028 224.66 76.2038C224.66 77.9048 225.143 79.2838 225.738 79.2838Z" stroke="black" stroke-linecap="round" stroke-linejoin="round"/>
<path d="M231.462 72.7112C230.818 74.205 232.346 74.6392 232.405 75.9728C231.595 74.2666 229.907 76.2038 229.907 76.2038C229.894 76.0036 229.879 75.7973 229.86 75.5878C229.86 75.5878 229.478 71.0018 222.738 71.0018H222.541C215.801 71.0018 215.419 75.5878 215.419 75.5878C215.404 75.748 215.391 75.9051 215.382 76.0591C215.382 76.0591 213.5 74.5838 212.557 75.4C212.548 74.1526 212.428 69.545 211.264 69.0368C209.914 68.4485 213.13 67.4845 215.059 68.1282C216.987 68.7689 220.2 59.4336 225.825 63.2989C225.825 63.2989 221.485 65.5565 222.772 66.8408C224.057 68.1282 233.055 61.3801 236.591 63.3081C236.591 63.3081 227.439 67.3644 229.121 69.6744C230.806 71.9843 235.947 68.1282 235.947 74.553C235.947 74.553 232.118 71.1897 231.462 72.7112Z" stroke="black" stroke-linecap="round" stroke-linejoin="round"/>
<path d="M220.656 82.3637C220.656 82.3637 222.129 84.5104 225.397 81.7446" stroke="black" stroke-linecap="round" stroke-linejoin="round"/>
<path d="M41.8018 19.2466V83.7497" stroke="black" stroke-width="2" stroke-linecap="round" stroke-linejoin="round"/>
<path d="M32.252 43.5781V105.146" stroke="black" stroke-width="2" stroke-linecap="round" stroke-linejoin="round"/>
<path d="M131.843 24.4609C131.843 24.4609 137.668 23.8788 143.909 28.9207C149.287 33.2634 152.358 39.8575 152.417 46.772C152.525 59.3381 151.111 85.4991 138.139 94.7882C137.625 95.1578 137.119 95.5428 136.627 95.9432C134.513 97.6649 128.328 102.254 122.444 102.254H122.54C116.659 102.254 110.47 97.6649 108.357 95.9432C107.864 95.5428 107.359 95.1578 106.845 94.7882C93.8761 85.496 92.459 59.3381 92.5669 46.772C92.6254 39.8575 95.6966 33.2665 101.075 28.9207C107.319 23.8788 113.141 24.4609 113.141 24.4609C113.141 24.4609 119.918 25.3849 123.307 24.7689C126.695 24.1529 131.836 24.4609 131.836 24.4609H131.843Z" stroke="black" stroke-miterlimit="10"/>
<path d="M152.196 56.1257C152.196 56.1257 162.127 43.5534 163.976 54.9491C165.824 66.3449 153.798 76.0467 148.413 78.7417" stroke="black" stroke-miterlimit="10"/>
<path d="M92.8225 56.6123C92.8225 56.6123 84.8072 43.8613 81.4187 53.4092C78.0302 62.957 90.1117 75.3999 96.2387 77.6483" stroke="black" stroke-miterlimit="10"/>
<path d="M82.2907 51.5704C82.2907 51.5704 77.4144 16.453 102.982 4.44125C102.982 4.44125 114.38 -0.794641 117.152 8.13718C119.925 17.069 116.903 19.0124 121.034 24.9721" stroke="black" stroke-miterlimit="10"/>
<path d="M162.836 51.5705C162.836 51.5705 162.463 10.9615 136.322 1.64162C130.401 -0.471212 123.929 -0.274096 118.018 1.87262C116.093 2.57177 113.798 3.16003 111.663 3.08303" stroke="black" stroke-miterlimit="10"/>
<path d="M215.265 159.812V257.624C215.265 259.405 213.885 260.846 212.184 260.846H62.0121C61.0356 260.846 60.1638 260.369 59.6001 259.626C59.1812 259.075 58.9316 258.382 58.9316 257.624V159.812C58.9316 158.032 60.3117 156.59 62.0121 156.59H212.184C213.885 156.59 215.265 158.032 215.265 159.812Z" stroke="black" stroke-miterlimit="10"/>
<path d="M58.9314 247.14H53.3065C51.6338 247.14 50.722 249.096 51.8032 250.377L52.8352 251.6L59.5999 259.626L59.6861 259.731" stroke="black" stroke-miterlimit="10"/>
<path d="M81.9184 62.3041C81.9184 62.3041 67.5573 103.923 70.0217 121.171C72.4861 138.419 75.5142 151.354 72.7695 156.59" stroke="black" stroke-miterlimit="10"/>
<path d="M104.568 92.8724C104.568 92.8724 120.959 123.635 111.663 156.59" stroke="black" stroke-miterlimit="10"/>
<path d="M143.407 89.3213C143.407 89.3213 129.788 134.415 133.019 156.59" stroke="black" stroke-miterlimit="10"/>
<path d="M162.995 63.3174C162.995 63.3174 178.45 125.175 169.52 156.59" stroke="black" stroke-miterlimit="10"/>
<path d="M112.913 118.402L122.496 124.731L136.725 115.932" stroke="black" stroke-miterlimit="10"/>
<path d="M52.8355 251.6C46.6222 251.372 32.677 251.129 22.8904 252.992C9.95248 255.456 -2.67737 252.992 0.711125 239.748C4.09962 226.505 1.94331 219.421 8.7203 205.869C14.5978 194.116 37.3901 144.138 43.3354 131.079C44.7 128.082 46.5113 125.304 48.7446 122.886C52.8232 118.47 59.9914 112.485 70.0645 110.647" stroke="black" stroke-miterlimit="10"/>
<path d="M28.7432 216.033C28.7432 216.033 54.3109 218.13 58.9316 221.395" stroke="black" stroke-miterlimit="10"/>
<path d="M58.9317 194.938C58.9317 194.938 53.5564 216.772 49.9307 218.713" stroke="black" stroke-miterlimit="10"/>
<path d="M60.7803 146.426C60.7803 146.426 62.3205 152.586 62.0125 156.59" stroke="black" stroke-miterlimit="10"/>
<path d="M184.306 146.426C184.306 146.426 182.683 154.742 182.88 156.59" stroke="black" stroke-miterlimit="10"/>
<path d="M215.265 216.212C215.265 216.212 220.039 216.03 222.504 216.338" stroke="black" stroke-miterlimit="10"/>
<path d="M221.888 220.037C221.888 220.037 233.285 222.501 234.826 225.273" stroke="black" stroke-miterlimit="10"/>
<path d="M215.265 252.182C215.265 252.182 238.83 256.38 243.451 248.988C248.072 241.596 230.513 188.621 224.044 176.61C217.575 164.598 202.37 109.427 171.005 109.449" stroke="black" stroke-miterlimit="10"/>
<path d="M107.295 68.196C109.677 68.196 111.608 62.2665 111.608 54.9522C111.608 47.6379 109.677 41.7085 107.295 41.7085C104.913 41.7085 102.982 47.6379 102.982 54.9522C102.982 62.2665 104.913 68.196 107.295 68.196Z" fill="black"/>
<path d="M138.1 68.196C140.482 68.196 142.412 62.2665 142.412 54.9522C142.412 47.6379 140.482 41.7085 138.1 41.7085C135.718 41.7085 133.787 47.6379 133.787 54.9522C133.787 62.2665 135.718 68.196 138.1 68.196Z" fill="black"/>
<path d="M98.6699 40.4765C98.6699 40.4765 111.885 33.3926 114.519 41.7085" stroke="black" stroke-width="1.2" stroke-linecap="round" stroke-linejoin="round"/>
<path d="M146.555 40.4765C146.555 40.4765 133.34 33.3926 130.706 41.7085" stroke="black" stroke-width="1.2" stroke-linecap="round" stroke-linejoin="round"/>
<path d="M143.952 37.0886C143.952 37.0886 147.944 37.4705 148.413 40.2055" stroke="black" stroke-width="1.2" stroke-linecap="round" stroke-linejoin="round"/>
<path d="M111.3 83.4509C111.3 83.4509 121.157 89.9896 133.479 83.7127" stroke="black" stroke-linecap="round" stroke-linejoin="round"/>
<path d="M125.778 72.5079L122.389 73.9339L119.001 72.5079" stroke="black" stroke-linecap="round" stroke-linejoin="round"/>
<path d="M158.982 54.9523L153.193 69.428" stroke="black" stroke-width="1.2" stroke-linecap="round" stroke-linejoin="round"/>
<path d="M85.7314 54.9523L91.5196 69.428" stroke="black" stroke-width="1.2" stroke-linecap="round" stroke-linejoin="round"/>
<path d="M24.7383 210.797C24.7383 210.797 30.8992 212.337 33.0555 214.801" stroke="black" stroke-miterlimit="10"/>
<path d="M121.188 127.907L123.951 130.669" stroke="black" stroke-width="1.2" stroke-linecap="round" stroke-linejoin="round"/>
<path d="M123.951 127.907L121.188 130.669" stroke="black" stroke-width="1.2" stroke-linecap="round" stroke-linejoin="round"/>
<path d="M138.099 218.497C145.244 218.497 151.037 212.705 151.037 205.561C151.037 198.417 145.244 192.625 138.099 192.625C130.954 192.625 125.161 198.417 125.161 205.561C125.161 212.705 130.954 218.497 138.099 218.497Z" stroke="black" stroke-linecap="round" stroke-linejoin="round"/>
</g>
<defs>
<clipPath id="clip0_17_196">
<rect width="247" height="261" fill="white"/>
</clipPath>
</defs>
</svg>
